<svg width="10" height="7" viewBox="0 0 10 7" fill="none" xmlns="http://www.w3.org/2000/svg">
<path d="M5.00034 6.05859C5.17662 6.05859 5.32696 5.99017 5.46176 5.84806L9.41749 1.74255C9.53155 1.63202 9.58858 1.48464 9.58858 1.31621C9.58858 0.974089 9.32936 0.705652 8.98718 0.705652C8.82128 0.705652 8.67093 0.774077 8.55688 0.889874L5.00034 4.59009L1.44381 0.889874C1.32457 0.774077 1.17422 0.705652 1.00832 0.705652C0.671332 0.705652 0.412109 0.974089 0.412109 1.31621C0.412109 1.48464 0.469138 1.63202 0.583196 1.74255L4.53893 5.84806C4.67372 5.99017 4.82407 6.05333 5.00034 6.05859Z" fill="#E8EDFF"/>
</svg>
