<svg width="25" height="25" viewBox="0 0 25 25" fill="none" xmlns="http://www.w3.org/2000/svg">
<path d="M22.0034 7.16133C21.3634 4.99133 19.5534 3.18133 17.3834 2.54133C15.7334 2.06133 14.5934 2.10133 13.8034 2.69133C12.8534 3.40133 12.7434 4.68133 12.7434 5.59133V8.08133C12.7434 10.5413 13.8634 11.7913 16.0634 11.7913H18.9334C19.8334 11.7913 21.1234 11.6813 21.8334 10.7313C22.4434 9.95133 22.4934 8.81133 22.0034 7.16133Z" fill="#298AFF"/>
<path d="M19.2434 13.5721C18.9834 13.2721 18.6034 13.1021 18.2134 13.1021H14.6334C12.8734 13.1021 11.4434 11.6721 11.4434 9.91206V6.33206C11.4434 5.94206 11.2734 5.56206 10.9734 5.30206C10.6834 5.04206 10.2834 4.92206 9.9034 4.97206C7.55339 5.27206 5.39339 6.56206 3.98339 8.50206C2.56339 10.4521 2.04339 12.8321 2.49339 15.2121C3.14339 18.6521 5.8934 21.4021 9.3434 22.0521C9.8934 22.1621 10.4434 22.2121 10.9934 22.2121C12.8034 22.2121 14.5534 21.6521 16.0434 20.5621C17.9834 19.1521 19.2734 16.9921 19.5734 14.6421C19.6234 14.2521 19.5034 13.8621 19.2434 13.5721Z" fill="#298AFF"/>
</svg>
