<svg width="32" height="33" viewBox="0 0 32 33" fill="none" xmlns="http://www.w3.org/2000/svg">
<path d="M29.2266 22.8325C28.7866 26.3792 25.88 29.2858 22.3333 29.7258C20.1866 29.9925 18.1866 29.4058 16.6266 28.2592C15.7333 27.6058 15.9466 26.2191 17.0133 25.8991C21.0266 24.6858 24.1866 21.5125 25.4133 17.4992C25.7333 16.4458 27.12 16.2325 27.7733 17.1125C28.9066 18.6858 29.4933 20.6858 29.2266 22.8325Z" fill="#298AFF"/>
<path d="M13.3198 3.16699C7.43984 3.16699 2.6665 7.94033 2.6665 13.8203C2.6665 19.7003 7.43984 24.4737 13.3198 24.4737C19.1998 24.4737 23.9732 19.7003 23.9732 13.8203C23.9598 7.94033 19.1998 3.16699 13.3198 3.16699ZM12.0665 12.327L15.2798 13.447C16.4398 13.8603 16.9998 14.6737 16.9998 15.927C16.9998 17.367 15.8532 18.5537 14.4532 18.5537H14.3332V18.6203C14.3332 19.167 13.8798 19.6203 13.3332 19.6203C12.7865 19.6203 12.3332 19.167 12.3332 18.6203V18.5403C10.8532 18.4737 9.6665 17.2337 9.6665 15.687C9.6665 15.1403 10.1198 14.687 10.6665 14.687C11.2132 14.687 11.6665 15.1403 11.6665 15.687C11.6665 16.167 12.0132 16.5537 12.4398 16.5537H14.4398C14.7465 16.5537 14.9865 16.2737 14.9865 15.927C14.9865 15.4603 14.9065 15.4337 14.5998 15.327L11.3865 14.207C10.2398 13.807 9.6665 12.9937 9.6665 11.727C9.6665 10.287 10.8132 9.10033 12.2132 9.10033H12.3332V9.04699C12.3332 8.50033 12.7865 8.04699 13.3332 8.04699C13.8798 8.04699 14.3332 8.50033 14.3332 9.04699V9.12699C15.8132 9.19366 16.9998 10.4337 16.9998 11.9803C16.9998 12.527 16.5465 12.9803 15.9998 12.9803C15.4532 12.9803 14.9998 12.527 14.9998 11.9803C14.9998 11.5003 14.6532 11.1137 14.2265 11.1137H12.2265C11.9198 11.1137 11.6798 11.3937 11.6798 11.7403C11.6665 12.1937 11.7465 12.2203 12.0665 12.327Z" fill="#298AFF"/>
</svg>
