<svg width="25" height="25" viewBox="0 0 25 25" fill="none" xmlns="http://www.w3.org/2000/svg">
<path d="M22.4199 16.9615C22.0899 19.6215 19.9099 21.8015 17.2499 22.1315C15.6399 22.3315 14.1399 21.8915 12.9699 21.0315C12.2999 20.5415 12.4599 19.5015 13.2599 19.2615C16.2699 18.3515 18.6399 15.9715 19.5599 12.9615C19.7999 12.1715 20.8399 12.0115 21.3299 12.6715C22.1799 13.8515 22.6199 15.3515 22.4199 16.9615Z" fill="#298AFF"/>
<path d="M10.49 2.21191C6.08 2.21191 2.5 5.79191 2.5 10.2019C2.5 14.6119 6.08 18.1919 10.49 18.1919C14.9 18.1919 18.48 14.6119 18.48 10.2019C18.47 5.79191 14.9 2.21191 10.49 2.21191ZM9.55 9.08191L11.96 9.92191C12.83 10.2319 13.25 10.8419 13.25 11.7819C13.25 12.8619 12.39 13.7519 11.34 13.7519H11.25V13.8019C11.25 14.2119 10.91 14.5519 10.5 14.5519C10.09 14.5519 9.75 14.2119 9.75 13.8019V13.7419C8.64 13.6919 7.75 12.7619 7.75 11.6019C7.75 11.1919 8.09 10.8519 8.5 10.8519C8.91 10.8519 9.25 11.1919 9.25 11.6019C9.25 11.9619 9.51 12.2519 9.83 12.2519H11.33C11.56 12.2519 11.74 12.0419 11.74 11.7819C11.74 11.4319 11.68 11.4119 11.45 11.3319L9.04 10.4919C8.18 10.1919 7.75 9.58191 7.75 8.63191C7.75 7.55191 8.61 6.66191 9.66 6.66191H9.75V6.62191C9.75 6.21191 10.09 5.87191 10.5 5.87191C10.91 5.87191 11.25 6.21191 11.25 6.62191V6.68191C12.36 6.73191 13.25 7.66191 13.25 8.82191C13.25 9.23191 12.91 9.57191 12.5 9.57191C12.09 9.57191 11.75 9.23191 11.75 8.82191C11.75 8.46191 11.49 8.17191 11.17 8.17191H9.67C9.44 8.17191 9.26 8.38191 9.26 8.64191C9.25 8.98191 9.31 9.00191 9.55 9.08191Z" fill="#298AFF"/>
</svg>
