<svg width="33" height="33" viewBox="0 0 33 33" fill="none" xmlns="http://www.w3.org/2000/svg">
<path d="M12.6668 3.16699C9.1735 3.16699 6.3335 6.00699 6.3335 9.50033C6.3335 12.927 9.0135 15.7003 12.5068 15.8203C12.6135 15.807 12.7202 15.807 12.8002 15.8203C12.8268 15.8203 12.8402 15.8203 12.8668 15.8203C12.8802 15.8203 12.8802 15.8203 12.8935 15.8203C16.3068 15.7003 18.9868 12.927 19.0002 9.50033C19.0002 6.00699 16.1602 3.16699 12.6668 3.16699Z" fill="#298AFF"/>
<path d="M19.4417 19.3668C15.7217 16.8868 9.65507 16.8868 5.90841 19.3668C4.21507 20.5002 3.28174 22.0335 3.28174 23.6735C3.28174 25.3135 4.21507 26.8335 5.89507 27.9535C7.76174 29.2068 10.2151 29.8335 12.6684 29.8335C15.1217 29.8335 17.5751 29.2068 19.4417 27.9535C21.1217 26.8202 22.0551 25.3002 22.0551 23.6468C22.0417 22.0068 21.1217 20.4868 19.4417 19.3668Z" fill="#298AFF"/>
<path d="M27.3195 10.2861C27.5328 12.8728 25.6928 15.1395 23.1462 15.4461C23.1328 15.4461 23.1328 15.4461 23.1195 15.4461H23.0795C22.9995 15.4461 22.9195 15.4461 22.8528 15.4728C21.5595 15.5395 20.3728 15.1261 19.4795 14.3661C20.8528 13.1395 21.6395 11.2995 21.4795 9.29948C21.3862 8.21948 21.0128 7.23282 20.4528 6.39282C20.9595 6.13948 21.5462 5.97948 22.1462 5.92615C24.7595 5.69948 27.0928 7.64615 27.3195 10.2861Z" fill="#298AFF"/>
<path d="M29.9875 22.6199C29.8808 23.9132 29.0541 25.0332 27.6675 25.7932C26.3341 26.5265 24.6541 26.8732 22.9875 26.8332C23.9475 25.9665 24.5075 24.8865 24.6141 23.7399C24.7475 22.0865 23.9608 20.4999 22.3875 19.2332C21.4941 18.5265 20.4541 17.9665 19.3208 17.5532C22.2675 16.6999 25.9741 17.2732 28.2541 19.1132C29.4808 20.0999 30.1075 21.3399 29.9875 22.6199Z" fill="#298AFF"/>
</svg>
