<svg width="90" height="32" viewBox="0 0 90 32" fill="none" xmlns="http://www.w3.org/2000/svg">
<g clip-path="url(#clip0_270_35251)">
<path fill-rule="evenodd" clip-rule="evenodd" d="M16.282 0.59375C24.8419 0.59391 31.7796 7.49086 31.7796 16C31.7796 24.5091 24.8419 31.4061 16.282 31.4063C7.72193 31.4063 0.783447 24.5092 0.783447 16C0.783447 7.49076 7.72193 0.59375 16.282 0.59375ZM16.2766 24.1572L14.249 22.9655V25.3389L16.2766 26.5316L18.315 25.3389V22.9655L16.2766 24.1572ZM7.27484 21.2777L12.7945 24.4955V22.1111L9.31238 20.074L9.30153 16L7.27484 14.8092V21.2777ZM23.2624 16L23.2507 20.074L19.7704 22.1093V24.4946L25.29 21.2768V14.8073L23.2624 16ZM16.2756 13.6247L12.8044 11.5785L10.7678 12.7712V15.1556L14.2598 17.1927V21.2768L16.2883 22.4576L18.3159 21.2768V17.1927L21.8079 15.1556L21.7971 12.7712H21.8052L19.7677 11.5785L16.2756 13.6247ZM10.7669 19.2297L12.7945 20.4105V18.037L10.7669 16.8444V19.2297ZM19.7686 18.037V20.4105L21.7971 19.2297V16.8444L19.7686 18.037ZM7.27303 10.7342V13.1077L9.30153 14.3004V11.926L11.3391 10.7342L9.30153 9.54152L7.27303 10.7342ZM21.2231 10.7342L23.2507 11.926V14.3004L25.2891 13.1077V10.7342L23.2507 9.54152L21.2231 10.7342ZM14.249 10.7342L16.2766 11.926L18.315 10.7342L16.2766 9.54152L14.249 10.7342ZM10.7669 8.69808L12.7945 9.89075L16.2766 7.8437L19.7686 9.89075L21.7971 8.69808L16.2766 5.4693L10.7669 8.69808Z" fill="#E8EDFF"/>
</g>
<path d="M38.7725 13.781V5.37759H42.1572C42.7791 5.37759 43.2978 5.46922 43.7133 5.6525C44.1289 5.83578 44.4412 6.09018 44.6503 6.4157C44.8595 6.73849 44.964 7.11052 44.964 7.53178C44.964 7.86004 44.898 8.14863 44.7659 8.39756C44.6338 8.64375 44.4522 8.84618 44.2211 9.00484C43.9927 9.16076 43.7312 9.27155 43.4368 9.3372V9.41927C43.7588 9.43294 44.0601 9.52321 44.3408 9.69008C44.6242 9.85694 44.854 10.0908 45.0301 10.3917C45.2062 10.6899 45.2943 11.0455 45.2943 11.4586C45.2943 11.9045 45.1828 12.3025 44.9599 12.6526C44.7398 13 44.4137 13.2749 43.9816 13.4774C43.5496 13.6798 43.0171 13.781 42.3842 13.781H38.7725ZM40.5598 12.3285H42.0169C42.5149 12.3285 42.8782 12.2341 43.1066 12.0453C43.335 11.8538 43.4492 11.5994 43.4492 11.2821C43.4492 11.0496 43.3928 10.8445 43.2799 10.6666C43.1671 10.4888 43.0061 10.3493 42.797 10.2481C42.5906 10.1469 42.3443 10.0963 42.0581 10.0963H40.5598V12.3285ZM40.5598 8.89405H41.8848C42.1297 8.89405 42.3471 8.85165 42.5369 8.76685C42.7296 8.67932 42.8809 8.55622 42.991 8.39756C43.1038 8.2389 43.1602 8.04879 43.1602 7.82721C43.1602 7.52357 43.0515 7.27875 42.8341 7.09273C42.6195 6.90672 42.314 6.81372 41.9178 6.81372H40.5598V8.89405Z" fill="#E8EDFF"/>
<path d="M48.2446 5.37759V13.781H46.4573V5.37759H48.2446Z" fill="#E8EDFF"/>
<path d="M56.7858 5.37759V13.781H55.2421L51.5643 8.49194H51.5024V13.781H49.7151V5.37759H51.2836L54.9325 10.6625H55.0068V5.37759H56.7858Z" fill="#E8EDFF"/>
<path d="M59.7196 13.781H57.8044L60.7227 5.37759H63.0259L65.9401 13.781H64.0248L61.9073 7.2979H61.8413L59.7196 13.781ZM59.5999 10.4779H64.1239V11.8648H59.5999V10.4779Z" fill="#E8EDFF"/>
<path d="M74.0284 5.37759V13.781H72.4846L68.8068 8.49194H68.7449V13.781H66.9576V5.37759H68.5261L72.175 10.6625H72.2493V5.37759H74.0284Z" fill="#E8EDFF"/>
<path d="M82.9639 8.3196H81.1559C81.1229 8.08708 81.0555 7.88055 80.9537 7.70001C80.8519 7.51673 80.7211 7.36081 80.5615 7.23224C80.4019 7.10368 80.2176 7.0052 80.0084 6.93681C79.802 6.86843 79.5778 6.83423 79.3356 6.83423C78.8981 6.83423 78.5169 6.94228 78.1922 7.15839C77.8675 7.37175 77.6157 7.6836 77.4369 8.09392C77.258 8.50151 77.1685 8.99663 77.1685 9.57929C77.1685 10.1784 77.258 10.6817 77.4369 11.0893C77.6185 11.4969 77.8716 11.8046 78.1964 12.0125C78.5211 12.2204 78.8967 12.3243 79.3232 12.3243C79.5626 12.3243 79.7842 12.2929 79.9878 12.23C80.1942 12.1671 80.3772 12.0754 80.5368 11.9551C80.6964 11.832 80.8285 11.6829 80.933 11.5078C81.0404 11.3327 81.1147 11.133 81.1559 10.9087L82.9639 10.9169C82.9171 11.3026 82.8001 11.6747 82.613 12.033C82.4286 12.3886 82.1796 12.7073 81.8659 12.9891C81.5549 13.2681 81.1834 13.4897 80.7514 13.6538C80.3221 13.8152 79.8364 13.8959 79.2943 13.8959C78.5403 13.8959 77.8661 13.7263 77.2717 13.3871C76.6801 13.0479 76.2123 12.5569 75.8683 11.914C75.5271 11.2712 75.3565 10.4929 75.3565 9.57929C75.3565 8.6629 75.5298 7.88329 75.8766 7.24045C76.2233 6.59761 76.6939 6.10796 77.2883 5.7715C77.8826 5.4323 78.5513 5.2627 79.2943 5.2627C79.7841 5.2627 80.2382 5.33108 80.6565 5.46786C81.0775 5.60463 81.4504 5.80432 81.7751 6.06693C82.0998 6.3268 82.364 6.64548 82.5676 7.02298C82.774 7.40048 82.9061 7.83268 82.9639 8.3196Z" fill="#E8EDFF"/>
<path d="M84.2455 13.781V5.37759H89.9418V6.84244H86.0328V8.84481H89.6487V10.3097H86.0328V12.3161H89.9583V13.781H84.2455Z" fill="#E8EDFF"/>
<path d="M46.549 19.5237H44.7411C44.7081 19.2912 44.6407 19.0847 44.5388 18.9041C44.437 18.7208 44.3063 18.5649 44.1467 18.4363C43.9871 18.3078 43.8027 18.2093 43.5936 18.1409C43.3872 18.0725 43.1629 18.0383 42.9208 18.0383C42.4832 18.0383 42.1021 18.1464 41.7774 18.3625C41.4527 18.5759 41.2009 18.8877 41.022 19.298C40.8432 19.7056 40.7537 20.2007 40.7537 20.7834C40.7537 21.3825 40.8432 21.8858 41.022 22.2934C41.2036 22.701 41.4568 23.0087 41.7815 23.2166C42.1062 23.4245 42.4819 23.5285 42.9084 23.5285C43.1478 23.5285 43.3693 23.497 43.573 23.4341C43.7793 23.3712 43.9623 23.2795 44.1219 23.1592C44.2815 23.0361 44.4136 22.887 44.5182 22.7119C44.6255 22.5368 44.6998 22.3371 44.7411 22.1128L46.549 22.121C46.5023 22.5067 46.3853 22.8788 46.1982 23.2371C46.0138 23.5927 45.7648 23.9114 45.4511 24.1932C45.1401 24.4722 44.7686 24.6938 44.3366 24.8579C43.9073 25.0193 43.4216 25.1 42.8795 25.1C42.1255 25.1 41.4513 24.9304 40.8569 24.5912C40.2653 24.252 39.7975 23.761 39.4535 23.1181C39.1123 22.4753 38.9417 21.697 38.9417 20.7834C38.9417 19.867 39.115 19.0874 39.4617 18.4446C39.8085 17.8017 40.279 17.3121 40.8734 16.9756C41.4678 16.6364 42.1365 16.4668 42.8795 16.4668C43.3693 16.4668 43.8234 16.5352 44.2416 16.672C44.6627 16.8087 45.0355 17.0084 45.3603 17.271C45.685 17.5309 45.9491 17.8496 46.1528 18.2271C46.3592 18.6046 46.4913 19.0368 46.549 19.5237Z" fill="#E8EDFF"/>
<path d="M55.5991 20.7834C55.5991 21.6998 55.4243 22.4794 55.0749 23.1222C54.7281 23.7651 54.2548 24.2561 53.6549 24.5953C53.0578 24.9318 52.3863 25.1 51.6406 25.1C50.8893 25.1 50.2151 24.9304 49.618 24.5912C49.0209 24.252 48.5489 23.761 48.2022 23.1181C47.8555 22.4753 47.6821 21.697 47.6821 20.7834C47.6821 19.867 47.8555 19.0874 48.2022 18.4446C48.5489 17.8017 49.0209 17.3121 49.618 16.9756C50.2151 16.6364 50.8893 16.4668 51.6406 16.4668C52.3863 16.4668 53.0578 16.6364 53.6549 16.9756C54.2548 17.3121 54.7281 17.8017 55.0749 18.4446C55.4243 19.0874 55.5991 19.867 55.5991 20.7834ZM53.787 20.7834C53.787 20.1898 53.6976 19.6892 53.5187 19.2816C53.3426 18.874 53.0936 18.5649 52.7716 18.3543C52.4496 18.1436 52.0726 18.0383 51.6406 18.0383C51.2086 18.0383 50.8316 18.1436 50.5096 18.3543C50.1876 18.5649 49.9372 18.874 49.7583 19.2816C49.5822 19.6892 49.4942 20.1898 49.4942 20.7834C49.4942 21.377 49.5822 21.8776 49.7583 22.2852C49.9372 22.6928 50.1876 23.0019 50.5096 23.2125C50.8316 23.4231 51.2086 23.5285 51.6406 23.5285C52.0726 23.5285 52.4496 23.4231 52.7716 23.2125C53.0936 23.0019 53.3426 22.6928 53.5187 22.2852C53.6976 21.8776 53.787 21.377 53.787 20.7834Z" fill="#E8EDFF"/>
<path d="M58.7104 16.5817V24.9851H56.923V16.5817H58.7104Z" fill="#E8EDFF"/>
<path d="M67.2516 16.5817V24.9851H65.7079L62.0301 19.696H61.9682V24.9851H60.1809V16.5817H61.7494L65.3983 21.8666H65.4726V16.5817H67.2516Z" fill="#E8EDFF"/>
<defs>
<clipPath id="clip0_270_35251">
<rect width="30.9965" height="30.8125" fill="white" transform="translate(0.783447 0.59375)"/>
</clipPath>
</defs>
</svg>
