<svg xmlns="http://www.w3.org/2000/svg" width="110" height="24" viewBox="0 0 110 24" fill="none">
  <g clip-path="url(#clip0_270_35230)">
    <path d="M10.4629 12.1211C11.3128 12.33 14.0323 12.7378 13.6297 14.3229C13.2441 15.8413 10.624 15.0207 9.77394 14.8147L10.4629 12.1211Z" fill="#E8EDFF"/>
    <path d="M11.4019 8.45318C12.0984 8.62052 14.3762 8.94101 14.0084 10.3831H14.0188C13.6614 11.7761 11.4844 11.0622 10.7773 10.8915L11.4019 8.45318Z" fill="#E8EDFF"/>
    <path fill-rule="evenodd" clip-rule="evenodd" d="M0.339065 9.32165C1.8579 3.34575 8.05278 -0.29695 14.1765 1.18481C14.1866 1.18729 14.1974 1.18935 14.2076 1.19208C20.3153 2.68784 24.0317 8.72466 22.5156 14.6891C20.997 20.6651 14.8013 24.3078 8.6772 22.826C2.55327 21.3443 -1.17958 15.2977 0.339065 9.32165ZM10.4629 6.7287L9.66292 6.55438L7.93221 6.13312L7.60017 7.43945C7.62422 7.44487 8.52765 7.64867 8.51015 7.66254C8.8645 7.70442 9.12266 8.01124 9.09535 8.35876L8.51015 10.6477C8.5541 10.6575 8.59742 10.6719 8.63881 10.6902L8.50703 10.655L7.68941 13.8643C7.61272 14.0989 7.35533 14.2274 7.11458 14.1527L6.97139 14.1257C6.71857 14.0674 6.21699 13.9381 6.20045 13.9338L5.57893 15.3273L7.21004 15.7216L8.10237 15.9478L7.58461 17.9783L8.83803 18.2855L9.35268 16.2746C9.69033 16.3651 10.0229 16.449 10.3488 16.5257L9.84138 18.5428L11.0948 18.8458L11.6126 16.8183C13.7543 17.2123 15.3575 17.0553 16.0358 15.1675C16.5821 13.6484 16.0066 12.7734 14.882 12.202C15.7029 12.0174 16.3102 11.5055 16.4851 10.4049C16.71 8.92068 15.5538 8.1215 13.9866 7.59198L14.5002 5.58215L13.2333 5.27606L12.7342 7.23401C12.4058 7.15402 12.0664 7.07688 11.7309 7.00366L12.2299 5.02496L10.9776 4.71783L10.4629 6.7287Z" fill="#E8EDFF"/>
    <path d="M29.7448 19.6565C30.4121 19.6585 31.0686 19.4927 31.6514 19.1757C32.2511 18.8636 32.7785 18.4339 33.2009 17.9144C33.6409 17.3651 33.9869 16.7498 34.2255 16.0923C34.4771 15.4131 34.6049 14.6964 34.6038 13.9742C34.6439 13.2415 34.4835 12.5116 34.1396 11.8594C33.8327 11.3542 33.2613 11.0966 32.4331 11.0966C32.0722 11.1086 31.7133 11.1565 31.3619 11.2393C30.9257 11.3344 30.5222 11.5386 30.1908 11.8316L28.2987 19.5519L28.6023 19.6076C28.6925 19.6292 28.7848 19.6432 28.877 19.6495C28.9955 19.6638 29.1148 19.6696 29.2341 19.6668L29.7448 19.6565ZM33.5042 7.58835C34.3306 7.56978 35.1511 7.73433 35.9032 8.06921C36.5561 8.37297 37.1299 8.81721 37.5812 9.36881C38.0434 9.93922 38.3832 10.5942 38.5809 11.2953C38.7973 12.0684 38.904 12.8665 38.8986 13.668C38.8976 16.1613 37.9072 18.5571 36.1353 20.3536C35.2763 21.2135 34.2542 21.9018 33.1258 22.3812C31.9426 22.8894 30.6628 23.1485 29.3701 23.1407H28.456C27.9591 23.1249 27.463 23.0833 26.9708 23.0153C26.3695 22.9302 25.7737 22.8141 25.1858 22.6669C24.5694 22.5241 23.971 22.3162 23.4009 22.0468L28.4169 1.54058L32.8975 0.84375L31.1126 8.12163C31.4843 7.95758 31.8701 7.82589 32.2657 7.72806C32.6734 7.63124 33.0921 7.58308 33.5116 7.58533L33.5042 7.58835Z" fill="#E8EDFF"/>
    <path d="M45.6104 6.09359C45.0264 6.09911 44.457 5.91649 43.9895 5.5746C43.4939 5.19207 43.226 4.59381 43.2754 3.979C43.2733 3.59547 43.3571 3.21595 43.5216 2.86753C43.6792 2.52814 43.9005 2.22086 44.1751 1.96175C44.4493 1.70739 44.767 1.50221 45.114 1.35546C45.4749 1.20421 45.8639 1.1272 46.2564 1.12896C46.8363 1.1272 47.4002 1.31081 47.8629 1.65146C48.3575 2.03474 48.6251 2.63249 48.577 3.24705C48.5801 3.63159 48.4973 4.01211 48.3344 4.36179C48.1768 4.69942 47.9565 5.00519 47.6845 5.26406C47.411 5.51941 47.0933 5.7246 46.7455 5.87034C46.3846 6.0216 45.9957 6.0976 45.6032 6.09334L45.6104 6.09359ZM43.5291 22.7434H39.2449L42.8649 7.90165H47.174L43.5291 22.7434Z" fill="#E8EDFF"/>
    <path d="M50.9228 4.20551L55.4032 3.52975L54.2894 7.90215H59.088L58.2235 11.3442H53.4645L52.1937 16.5213C52.0837 16.9176 52.0156 17.324 51.9901 17.7341C51.9639 18.0657 52.0143 18.3988 52.1364 18.7091C52.2559 18.9875 52.4772 19.2125 52.7577 19.3397C53.1612 19.5138 53.6018 19.5931 54.0429 19.5697C54.4948 19.5712 54.9457 19.5278 55.3888 19.4408C55.8348 19.3558 56.2741 19.2394 56.7026 19.0924L57.0239 22.3114C56.4088 22.5271 55.7803 22.7055 55.1423 22.8445C54.3539 23.0078 53.5491 23.0838 52.7433 23.071C51.4115 23.071 50.3833 22.8758 49.6479 22.4925C48.96 22.1511 48.4089 21.5943 48.0843 20.9107C47.7673 20.1855 47.629 19.3979 47.6809 18.6113C47.729 17.6884 47.864 16.7719 48.0843 15.8728L50.9226 4.19147L50.9228 4.20551Z" fill="#E8EDFF"/>
    <path d="M58.9307 16.817C58.9217 15.5859 59.1366 14.3623 59.5661 13.2044C59.9689 12.1095 60.5876 11.1024 61.3868 10.2397C62.1926 9.38411 63.1725 8.70308 64.2642 8.23953C65.4548 7.73785 66.7409 7.48726 68.0377 7.50482C68.8206 7.49579 69.6021 7.57631 70.3655 7.74487C71.0074 7.89337 71.6317 8.10583 72.2291 8.37899L70.7405 11.6434C70.355 11.4902 69.955 11.3582 69.5409 11.2358C69.0471 11.1016 68.5358 11.0394 68.0235 11.0512C66.729 11.0055 65.4839 11.5396 64.6426 12.5006C63.8072 13.4595 63.3879 14.7486 63.3859 16.3678C63.3465 17.189 63.5686 18.0017 64.0213 18.6953C64.4446 19.2875 65.2258 19.5833 66.3633 19.5833C66.9085 19.5838 67.4519 19.5266 67.9842 19.4127C68.459 19.3139 68.9242 19.1729 69.373 18.991L69.6908 22.3498C69.1067 22.5655 68.5109 22.7494 67.9058 22.8999C67.1375 23.069 66.3514 23.1487 65.5638 23.1372C64.5184 23.1668 63.4779 22.995 62.5006 22.6317C61.7238 22.3262 61.0243 21.8592 60.4514 21.2629C59.9077 20.685 59.506 19.9937 59.2769 19.2419C59.0345 18.4507 58.9142 17.6287 58.9199 16.8032L58.9307 16.817Z" fill="#E8EDFF"/>
    <path d="M80.0691 11.0652C79.465 11.057 78.8746 11.2443 78.3911 11.5983C77.9009 11.9685 77.4896 12.4293 77.1809 12.9536C76.8413 13.5117 76.5863 14.1152 76.4241 14.7448C76.2671 15.3483 76.1853 15.9679 76.1815 16.5908C76.1429 17.3511 76.3015 18.1081 76.6421 18.7926C76.9529 19.3186 77.5097 19.5835 78.3201 19.5835C78.9252 19.5936 79.5164 19.4047 79.9981 19.047C80.4894 18.6767 80.9014 18.216 81.2119 17.6922C81.5466 17.1333 81.7954 16.5301 81.9512 15.9009C82.1065 15.2962 82.1882 14.6751 82.1936 14.051C82.2337 13.2912 82.0746 12.5334 81.733 11.8491C81.4224 11.3266 80.8618 11.0617 80.0549 11.0617L80.0691 11.0652ZM77.9271 23.1404C77.0174 23.161 76.1129 23.007 75.2638 22.6874C74.5495 22.4125 73.9115 21.9786 73.4002 21.4192C72.8974 20.8558 72.5188 20.1978 72.2864 19.4857C72.034 18.6873 71.9132 17.8545 71.9294 17.0192C71.9322 15.8688 72.1211 14.7258 72.4903 13.6328C72.8483 12.5329 73.4074 11.5052 74.1392 10.5984C74.8744 9.69189 75.7887 8.93837 76.8274 8.38276C77.9456 7.79604 79.1995 7.49955 80.4691 7.52212C81.3734 7.50607 82.273 7.66008 83.1182 7.97514C83.8333 8.24555 84.4749 8.67373 84.9923 9.22583C85.492 9.79072 85.8699 10.4484 86.1028 11.1593C86.357 11.9585 86.4776 12.7925 86.4598 13.6293C86.4562 14.7787 86.2719 15.921 85.9136 17.0157C85.5617 18.1171 85.0129 19.1488 84.2927 20.0641C83.5683 20.9744 82.6576 21.728 81.6186 22.2766C80.4832 22.8663 79.2131 23.1638 77.9271 23.1404Z" fill="#E8EDFF"/>
    <path d="M93.2251 6.09359C92.6421 6.09961 92.0733 5.917 91.608 5.5746C91.1122 5.19207 90.8443 4.59381 90.8939 3.979C90.8919 3.59547 90.9757 3.21595 91.1399 2.86753C91.2931 2.5299 91.5083 2.22312 91.7753 1.96175C92.0514 1.70815 92.3702 1.50296 92.7179 1.35546C93.0778 1.20446 93.4654 1.12745 93.8572 1.12896C94.4412 1.12394 95.0116 1.30806 95.4781 1.65146C95.9727 2.03474 96.24 2.63249 96.1922 3.24705C96.193 3.63209 96.1077 4.01262 95.9418 4.36179C95.7871 4.69967 95.5676 5.00594 95.2959 5.26406C95.0224 5.51941 94.7047 5.7246 94.3569 5.87034C93.9991 6.02009 93.6143 6.09635 93.2251 6.09359ZM91.1476 22.7434H86.8634L90.4765 7.90165H94.7892L91.1476 22.7434Z" fill="#E8EDFF"/>
    <path d="M97.8736 8.57766C98.1985 8.48711 98.5591 8.37548 98.9447 8.25383C99.3303 8.13192 99.7801 8.02029 100.276 7.90541C100.82 7.79278 101.369 7.708 101.922 7.65106C102.609 7.58032 103.299 7.54645 103.989 7.54997C106.246 7.54997 107.802 8.18961 108.659 9.46965C109.172 10.2362 109.432 11.1713 109.438 12.2753V12.3548C109.434 13.0727 109.324 13.8611 109.109 14.7197L107.142 22.7326H102.843L104.753 14.8865C104.867 14.3992 104.96 13.9253 105.028 13.462C105.103 13.0609 105.103 12.6503 105.028 12.2497C104.957 11.9148 104.768 11.6153 104.493 11.4031C104.112 11.1593 103.658 11.0454 103.204 11.079C102.632 11.08 102.061 11.1372 101.501 11.2499L98.6948 22.7466H94.371L97.8736 8.57766Z" fill="#E8EDFF"/>
  </g>
  <defs>
    <clipPath id="clip0_270_35230">
      <rect width="109.438" height="22.3125" fill="white" transform="translate(0 0.84375)"/>
    </clipPath>
  </defs>
</svg>