<svg xmlns="http://www.w3.org/2000/svg" width="141" height="34" viewBox="0 0 141 34" fill="none">
  <g clip-path="url(#clip0_270_35235)">
    <path d="M39.8274 19.5641C39.8253 19.6823 39.7751 19.7949 39.6877 19.8773C39.6002 19.9597 39.4827 20.0052 39.3607 20.0038H30.7663C30.9866 22.0644 32.5811 23.9491 34.8366 23.9491C36.3792 23.9491 37.52 23.3837 38.3755 22.1901C38.4154 22.1274 38.4705 22.0751 38.536 22.0378C38.6016 22.0006 38.6755 21.9795 38.7515 21.9765C38.8081 21.9749 38.8644 21.9846 38.917 22.0049C38.9697 22.0251 39.0175 22.0556 39.0575 22.0944C39.0976 22.1333 39.129 22.1796 39.15 22.2306C39.1709 22.2816 39.1808 22.3362 39.1792 22.3911C39.1795 22.4669 39.157 22.5411 39.1144 22.6047C38.2459 24.0622 36.5218 24.7784 34.8366 24.7784C31.9459 24.7784 29.8718 22.2655 29.8718 19.5892C29.8718 16.9129 31.9329 14.4 34.8366 14.4C37.7403 14.4 39.8144 16.8878 39.8274 19.5641ZM38.907 19.1746C38.7255 17.1139 37.0922 15.2292 34.8366 15.2292C32.5811 15.2292 30.9866 17.1139 30.7663 19.1746H38.907Z" fill="#E8EDFF"/>
    <path d="M50.2755 14.601C50.3879 14.6042 50.4949 14.6489 50.5744 14.726C50.6539 14.803 50.7 14.9067 50.7033 15.0156C50.7049 15.0705 50.695 15.1251 50.674 15.1762C50.6531 15.2272 50.6216 15.2735 50.5816 15.3123C50.5415 15.3511 50.4937 15.3816 50.4411 15.4019C50.3885 15.4222 50.3321 15.4318 50.2755 15.4303H47.9681V24.213C47.9671 24.3226 47.9217 24.4275 47.8417 24.5051C47.7617 24.5826 47.6535 24.6266 47.5403 24.6276C47.4279 24.6245 47.321 24.5798 47.2415 24.5027C47.1619 24.4256 47.1158 24.322 47.1126 24.213V15.4303H44.8959C44.8393 15.4318 44.7829 15.4222 44.7303 15.4019C44.6777 15.3816 44.6299 15.3511 44.5898 15.3123C44.5498 15.2735 44.5183 15.2272 44.4974 15.1762C44.4765 15.1251 44.4665 15.0705 44.4681 15.0156C44.4691 14.906 44.5145 14.8011 44.5945 14.7235C44.6745 14.646 44.7828 14.602 44.8959 14.601H47.1126V11.397C47.1128 11.2909 47.1521 11.1882 47.2233 11.1076C47.2946 11.027 47.3932 10.9737 47.5015 10.9573C47.5619 10.9495 47.6234 10.9544 47.6818 10.9718C47.7401 10.9892 47.7939 11.0186 47.8394 11.0579C47.8849 11.0973 47.9212 11.1457 47.9456 11.1999C47.9701 11.2541 47.9822 11.3128 47.9811 11.3719V14.601H50.2755Z" fill="#E8EDFF"/>
    <path d="M64.3403 18.8479V24.1627C64.3371 24.2717 64.291 24.3753 64.2114 24.4524C64.1319 24.5295 64.025 24.5742 63.9126 24.5774C63.856 24.5789 63.7996 24.5693 63.747 24.549C63.6944 24.5287 63.6465 24.4982 63.6065 24.4594C63.5665 24.4206 63.535 24.3742 63.5141 24.3232C63.4931 24.2722 63.4832 24.2176 63.4848 24.1627V18.8479C63.4848 17.0511 62.4348 15.2669 60.3737 15.2669C57.7292 15.2669 56.5885 17.5035 56.7441 19.8028C56.7441 19.8656 56.77 20.1295 56.77 20.1672V24.1502C56.7698 24.2563 56.7305 24.3589 56.6592 24.4396C56.5879 24.5202 56.4893 24.5735 56.3811 24.5899C56.3206 24.5977 56.2591 24.5928 56.2008 24.5754C56.1424 24.558 56.0887 24.5286 56.0431 24.4893C55.9976 24.4499 55.9614 24.4015 55.9369 24.3473C55.9125 24.2931 55.9004 24.2344 55.9015 24.1753V6.69784C55.9025 6.58817 55.9479 6.48328 56.0279 6.40573C56.1079 6.32819 56.2161 6.28419 56.3292 6.2832C56.4417 6.28636 56.5486 6.33106 56.6281 6.40815C56.7076 6.48523 56.7538 6.58887 56.757 6.69784V16.5737C57.4959 15.2921 58.8181 14.4251 60.3607 14.4251C62.9015 14.4251 64.3403 16.5737 64.3403 18.8479Z" fill="#E8EDFF"/>
    <path d="M79.7792 19.5641C79.7772 19.6823 79.727 19.7949 79.6395 19.8773C79.5521 19.9597 79.4345 20.0052 79.3126 20.0038H70.7181C70.9385 22.0644 72.5329 23.9491 74.7885 23.9491C76.3311 23.9491 77.4718 23.3837 78.3274 22.1901C78.3672 22.1274 78.4223 22.0751 78.4879 22.0378C78.5534 22.0006 78.6274 21.9795 78.7033 21.9765C78.7599 21.9749 78.8163 21.9846 78.8689 22.0049C78.9215 22.0251 78.9693 22.0556 79.0094 22.0944C79.0494 22.1333 79.0809 22.1796 79.1018 22.2306C79.1227 22.2816 79.1327 22.3362 79.1311 22.3911C79.1314 22.4669 79.1089 22.5411 79.0663 22.6047C78.1978 24.0622 76.4737 24.7784 74.7885 24.7784C71.8978 24.7784 69.8237 22.2655 69.8237 19.5892C69.8237 16.9129 71.8848 14.4 74.7885 14.4C77.6663 14.4 79.7663 16.8878 79.7792 19.5641ZM78.8459 19.1746C78.6644 17.1139 77.0311 15.2292 74.7755 15.2292C72.52 15.2292 70.9255 17.1139 70.7052 19.1746H78.8459Z" fill="#E8EDFF"/>
    <path d="M90.344 14.9905C90.3523 15.1021 90.3146 15.2122 90.2393 15.297C90.164 15.3817 90.0572 15.4342 89.9422 15.4428C87.4144 15.8072 86.2737 17.805 86.2737 20.1295V24.1125C86.2734 24.2186 86.2342 24.3212 86.1629 24.4019C86.0916 24.4825 85.993 24.5358 85.8848 24.5522C85.8243 24.56 85.7628 24.5551 85.7045 24.5377C85.6461 24.5203 85.5924 24.4909 85.5468 24.4516C85.5013 24.4122 85.4651 24.3638 85.4406 24.3096C85.4162 24.2554 85.4041 24.1967 85.4051 24.1376V15.0533C85.4054 14.9472 85.4446 14.8446 85.5159 14.764C85.5872 14.6833 85.6858 14.63 85.794 14.6136C85.8545 14.6058 85.916 14.6108 85.9744 14.6281C86.0327 14.6455 86.0865 14.6749 86.132 14.7142C86.1775 14.7536 86.2138 14.802 86.2382 14.8562C86.2627 14.9104 86.2748 14.9691 86.2737 15.0282V16.8752C86.9866 15.7067 88.3996 14.601 89.8774 14.601C90.0977 14.601 90.344 14.7518 90.344 14.9905Z" fill="#E8EDFF"/>
    <path d="M104.474 19.5641C104.472 19.6823 104.421 19.7949 104.334 19.8773C104.246 19.9597 104.129 20.0052 104.007 20.0038H95.4126C95.6329 22.0644 97.2274 23.9491 99.4829 23.9491C101.026 23.9491 102.166 23.3837 103.022 22.1901C103.062 22.1274 103.117 22.0751 103.182 22.0378C103.248 22.0006 103.322 21.9795 103.398 21.9765C103.454 21.9749 103.511 21.9846 103.563 22.0049C103.616 22.0251 103.664 22.0556 103.704 22.0944C103.744 22.1333 103.775 22.1796 103.796 22.2306C103.817 22.2816 103.827 22.3362 103.826 22.3911C103.826 22.4669 103.803 22.5411 103.761 22.6047C102.892 24.0622 101.168 24.7784 99.4829 24.7784C96.5922 24.7784 94.5181 22.2655 94.5181 19.5892C94.5181 16.9129 96.5792 14.4 99.4829 14.4C102.387 14.4 104.461 16.8878 104.474 19.5641ZM103.553 19.1746C103.372 17.1139 101.738 15.2292 99.4829 15.2292C97.2274 15.2292 95.6329 17.1139 95.4126 19.1746H103.553Z" fill="#E8EDFF"/>
    <path d="M118.37 15.091V24.213C118.367 24.322 118.321 24.4256 118.241 24.5027C118.162 24.5798 118.055 24.6245 117.942 24.6276C117.886 24.6292 117.829 24.6195 117.777 24.5992C117.724 24.579 117.676 24.5485 117.636 24.5097C117.596 24.4708 117.565 24.4245 117.544 24.3735C117.523 24.3225 117.513 24.2679 117.514 24.213V22.4791C116.801 23.8486 115.544 24.8412 113.937 24.8412C111.383 24.8412 109.97 22.6927 109.97 20.4185V15.0785C109.971 14.9688 110.016 14.8639 110.096 14.7864C110.176 14.7088 110.285 14.6648 110.398 14.6638C110.51 14.667 110.617 14.7117 110.697 14.7888C110.776 14.8659 110.822 14.9695 110.826 15.0785V20.4185C110.826 22.2152 111.876 23.9994 113.937 23.9994C116.827 23.9994 117.514 21.3734 117.514 18.4709V15.0659C117.515 14.9987 117.533 14.9327 117.566 14.8734C117.598 14.8141 117.645 14.7632 117.702 14.7251C117.759 14.687 117.825 14.6626 117.894 14.6542C117.963 14.6457 118.033 14.6533 118.098 14.6764C118.179 14.7131 118.248 14.7717 118.296 14.8451C118.345 14.9186 118.37 15.0039 118.37 15.091Z" fill="#E8EDFF"/>
    <path d="M140.135 18.8102V24.1502C140.132 24.2591 140.085 24.3628 140.006 24.4399C139.926 24.5169 139.819 24.5616 139.707 24.5648C139.65 24.5664 139.594 24.5567 139.541 24.5364C139.489 24.5161 139.441 24.4856 139.401 24.4468C139.361 24.408 139.329 24.3617 139.309 24.3107C139.288 24.2597 139.278 24.205 139.279 24.1502V18.8102C139.279 17.0134 138.229 15.2544 136.168 15.2544C133.576 15.2544 132.59 17.9432 132.59 20.029V24.1502C132.587 24.2591 132.541 24.3628 132.461 24.4399C132.382 24.5169 132.275 24.5616 132.163 24.5648C132.106 24.5664 132.05 24.5567 131.997 24.5364C131.944 24.5161 131.897 24.4856 131.856 24.4468C131.816 24.408 131.785 24.3617 131.764 24.3107C131.743 24.2597 131.733 24.205 131.735 24.1502V18.8102C131.735 17.0134 130.685 15.2544 128.624 15.2544C126.005 15.2544 124.929 17.2522 125.02 19.9159C125.02 19.9787 125.046 20.0918 125.02 20.1295V24.1376C125.02 24.2438 124.98 24.3464 124.909 24.427C124.838 24.5076 124.739 24.5609 124.631 24.5774C124.571 24.5852 124.509 24.5802 124.451 24.5628C124.392 24.5454 124.339 24.5161 124.293 24.4767C124.248 24.4373 124.211 24.3889 124.187 24.3347C124.162 24.2805 124.15 24.2219 124.151 24.1627V15.0533C124.152 14.9472 124.191 14.8446 124.262 14.764C124.334 14.6833 124.432 14.63 124.54 14.6136C124.601 14.6058 124.662 14.6108 124.721 14.6281C124.779 14.6455 124.833 14.6749 124.878 14.7142C124.924 14.7536 124.96 14.802 124.985 14.8562C125.009 14.9104 125.021 14.9691 125.02 15.0282V16.5485C125.759 15.2669 127.081 14.4251 128.624 14.4251C130.374 14.4251 131.735 15.5057 132.292 17.0763C133.005 15.5182 134.392 14.4251 136.168 14.4251C138.696 14.4251 140.135 16.5485 140.135 18.8102Z" fill="#E8EDFF"/>
    <path opacity="0.6" d="M10.894 12.5781L0.134766 17.315L10.894 23.4843L21.6662 17.315L10.894 12.5781Z" fill="#E8EDFF"/>
    <path opacity="0.45" d="M0.134766 17.3141L10.894 23.4834V0L0.134766 17.3141Z" fill="#E8EDFF"/>
    <path opacity="0.8" d="M10.894 0V23.4834L21.6663 17.3141L10.894 0Z" fill="#E8EDFF"/>
    <path opacity="0.45" d="M0.134766 19.2998L10.894 34.0005V25.4565L0.134766 19.2998Z" fill="#E8EDFF"/>
    <path opacity="0.8" d="M10.894 25.4565V34.0005L21.6663 19.2998L10.894 25.4565Z" fill="#E8EDFF"/>
  </g>
  <defs>
    <clipPath id="clip0_270_35235">
      <rect width="140" height="34" fill="white" transform="translate(0.134766)"/>
    </clipPath>
  </defs>
</svg>