<svg xmlns="http://www.w3.org/2000/svg" width="94" height="28" viewBox="0 0 94 28" fill="none">
  <g clip-path="url(#clip0_270_35248)">
    <path d="M34.4837 10.7477C34.2368 10.6664 33.7153 10.6122 33.1938 10.6122C31.6293 10.6122 29.9551 11.8637 29.9551 13.4087V20.7766H26.3872V7.63061H29.8179V8.95875C30.6139 7.98296 32.0684 7.35952 33.6878 7.35952C34.0927 7.3624 34.4967 7.39866 34.8955 7.46794L34.4837 10.7477Z" fill="#E8EDFF"/>
    <path d="M38.5181 0.71875C39.8081 0.71875 40.8511 1.69454 40.8511 2.9685C40.8511 4.24247 39.8081 5.21818 38.5181 5.21818C37.2281 5.21818 36.1852 4.24247 36.1852 2.9685C36.1852 1.69454 37.2282 0.71875 38.5181 0.71875ZM40.3021 20.7767H36.7341V7.63061H40.3021V20.7767Z" fill="#E8EDFF"/>
    <path d="M50.8418 7.35887C49.4257 7.34117 48.0477 7.81125 46.9445 8.68828V7.6305H43.513V27.2812H47.0813V19.8553C48.0961 20.647 49.3566 21.0683 50.6496 21.0481C52.6259 21.0481 54.5192 20.1801 55.6994 18.8248C56.7428 17.6319 57.373 16.0065 57.373 14.2172C57.373 10.3411 54.4639 7.35887 50.8418 7.35887ZM50.4081 17.849C48.1917 17.849 46.735 16.3385 46.735 14.2287C46.735 12.1188 48.1917 10.6084 50.4081 10.6084C52.2999 10.6084 53.8338 12.2295 53.8338 14.2287C53.8338 16.2278 52.2999 17.849 50.4081 17.849Z" fill="#E8EDFF"/>
    <path d="M79.0283 20.7766H75.4602V1.53187H79.0283V20.7766Z" fill="#E8EDFF"/>
    <path d="M93.5747 18.6895C92.2847 20.2074 90.1713 21.0477 88.1129 21.0477C84.1333 21.0477 81.1416 18.3372 81.1416 14.2172C81.1416 10.558 83.6667 7.3595 87.6189 7.3595C91.2967 7.3595 93.9041 10.4224 93.9041 14.0816C93.9062 14.4177 93.8786 14.7532 93.8217 15.0846H84.5998C84.792 16.9276 86.3015 18.2016 88.1953 18.2016C89.7048 18.2016 90.9124 17.3613 91.5437 16.6837L93.5747 18.6895ZM90.2537 12.5096C90.1439 11.344 89.0736 10.2056 87.6189 10.2056C86.1368 10.2056 84.9292 11.317 84.7646 12.5096H90.2537Z" fill="#E8EDFF"/>
    <path d="M66.8156 7.35887C65.3995 7.34118 64.0215 7.81126 62.9184 8.68828V7.6305H59.4869V27.2812H63.0552V19.8553C64.07 20.647 65.3304 21.0683 66.6235 21.0481C68.5997 21.0481 70.493 20.1801 71.6732 18.8248C72.7167 17.6319 73.3468 16.0065 73.3468 14.2172C73.3468 10.3411 70.4377 7.35887 66.8156 7.35887ZM66.3819 17.849C64.1655 17.849 62.7088 16.3385 62.7088 14.2287C62.7088 12.1188 64.1656 10.6083 66.3819 10.6083C68.2737 10.6083 69.8076 12.2295 69.8076 14.2286C69.8076 16.2278 68.2738 17.849 66.3819 17.849Z" fill="#E8EDFF"/>
    <path d="M19.0316 15.9867C18.226 15.5273 17.3188 15.3942 16.4202 15.3632C15.6663 15.3372 14.5415 14.8601 14.5415 13.5057C14.5415 12.4965 15.3699 11.6843 16.4206 11.6481C17.3191 11.6171 18.2263 11.4838 19.0316 11.0246C19.755 10.6121 20.3558 10.0188 20.7735 9.30439C21.1911 8.58994 21.411 7.7795 21.411 6.95453C21.411 6.12956 21.1911 5.31912 20.7734 4.60468C20.3558 3.89023 19.755 3.29696 19.0316 2.88448C18.3081 2.47201 17.4875 2.25487 16.6522 2.25488C15.8168 2.2549 14.9962 2.47207 14.2728 2.88458C13.5493 3.29708 12.9486 3.89038 12.531 4.60484C12.1133 5.3193 11.8935 6.12975 11.8935 6.95472C11.8935 7.86528 12.2214 8.70322 12.6398 9.48039C12.9918 10.134 13.1698 11.3472 11.9628 12.0354C11.065 12.5474 9.94441 12.2232 9.38471 11.3386C8.91193 10.5914 8.34121 9.89128 7.54218 9.43561C6.81876 9.02313 5.99814 8.80597 5.16281 8.80597C4.32747 8.80597 3.50685 9.02312 2.78343 9.4356C2.06001 9.84808 1.45927 10.4414 1.04161 11.1558C0.623937 11.8702 0.404053 12.6807 0.404053 13.5056C0.404053 14.3306 0.623937 15.141 1.04161 15.8555C1.45927 16.5699 2.06001 17.1632 2.78343 17.5756C3.50685 17.9881 4.32747 18.2053 5.16281 18.2053C5.99814 18.2053 6.81876 17.9881 7.54218 17.5756C8.34099 17.1201 8.91176 16.4205 9.38423 15.6738C9.77221 15.0606 10.7412 14.279 11.9628 14.976C12.8593 15.4875 13.1364 16.6083 12.6394 17.5315C12.2211 18.3085 11.8935 19.1463 11.8935 20.0567C11.8935 20.8816 12.1134 21.6921 12.5311 22.4065C12.9488 23.1209 13.5495 23.7142 14.2729 24.1267C14.9963 24.5391 15.8169 24.7563 16.6522 24.7563C17.4876 24.7563 18.3082 24.5391 19.0316 24.1267C19.755 23.7142 20.3557 23.1209 20.7734 22.4065C21.1911 21.6921 21.4109 20.8817 21.4109 20.0567C21.4109 19.2317 21.1911 18.4213 20.7734 17.7069C20.3557 16.9925 19.755 16.3992 19.0316 15.9867Z" fill="#E8EDFF"/>
  </g>
  <defs>
    <clipPath id="clip0_270_35248">
      <rect width="93.5" height="26.5625" fill="white" transform="translate(0.404053 0.71875)"/>
    </clipPath>
  </defs>
</svg>