<svg xmlns="http://www.w3.org/2000/svg" width="160" height="24" viewBox="0 0 160 24" fill="none">
  <mask id="mask0_270_35257" style="mask-type:luminance" maskUnits="userSpaceOnUse" x="1" y="2" width="158" height="21">
    <path d="M158.376 2.8623H1.89233V22.0516H158.376V2.8623Z" fill="white"/>
  </mask>
  <g mask="url(#mask0_270_35257)">
    <path d="M28.1822 17.9919L23.8898 21.7898C23.797 21.8723 23.6846 21.9381 23.5595 21.9832C23.4345 22.0282 23.2996 22.0516 23.1631 22.0517H2.81537C2.71833 22.0516 2.6234 22.0282 2.54222 21.9843C2.46104 21.9405 2.39713 21.878 2.35831 21.8046C2.31949 21.7312 2.30745 21.6501 2.32367 21.5711C2.33988 21.4921 2.38364 21.4188 2.4496 21.36L6.73716 17.5622C6.83001 17.4797 6.94243 17.4138 7.06747 17.3688C7.19249 17.3238 7.32744 17.3004 7.46387 17.3003H27.8116C27.9095 17.2987 28.0059 17.3209 28.0885 17.3643C28.1711 17.4078 28.2365 17.4704 28.276 17.5443C28.3157 17.6182 28.3278 17.7002 28.3111 17.7798C28.2944 17.8595 28.2496 17.9333 28.1822 17.9919ZM23.8898 10.3422C23.7966 10.2601 23.6841 10.1945 23.5592 10.1495C23.4342 10.1045 23.2995 10.0809 23.1631 10.0804H2.81537C2.71833 10.0804 2.6234 10.1038 2.54222 10.1477C2.46104 10.1916 2.39713 10.254 2.35831 10.3274C2.31949 10.4008 2.30745 10.482 2.32367 10.5609C2.33988 10.6399 2.38364 10.7132 2.4496 10.772L6.73716 14.5719C6.83035 14.654 6.94287 14.7195 7.06781 14.7646C7.19276 14.8096 7.32754 14.8331 7.46387 14.8337H27.8116C27.9085 14.8333 28.003 14.8096 28.0839 14.7656C28.1648 14.7215 28.2283 14.659 28.2668 14.5857C28.3053 14.5124 28.3172 14.4314 28.3007 14.3526C28.2845 14.2739 28.2409 14.2007 28.175 14.1421L23.8898 10.3422ZM2.81537 7.61373H23.1631C23.2996 7.61363 23.4345 7.5903 23.5595 7.54524C23.6846 7.50021 23.797 7.43437 23.8898 7.35187L28.1822 3.55401C28.2496 3.49534 28.2944 3.42154 28.3111 3.34189C28.3278 3.26223 28.3157 3.18029 28.276 3.10636C28.2365 3.03243 28.1711 2.96982 28.0885 2.92641C28.0059 2.88299 27.9095 2.86072 27.8116 2.86239H7.46387C7.32744 2.86251 7.19249 2.88582 7.06747 2.93087C6.94243 2.97593 6.83001 3.04175 6.73716 3.12425L2.4496 6.92211C2.38364 6.98086 2.33988 7.05422 2.32367 7.13317C2.30745 7.21213 2.31949 7.29327 2.35831 7.36666C2.39713 7.44006 2.46104 7.50253 2.54222 7.5464C2.6234 7.5903 2.71833 7.61369 2.81537 7.61373Z" fill="#E8EDFF"/>
    <path d="M52.9895 10.9773H42.1035V8.01894H55.8189V5.06059H42.0672C41.5972 5.05849 41.1317 5.13277 40.6966 5.27919C40.2615 5.42563 39.8655 5.64133 39.5317 5.91399C39.1976 6.18666 38.9319 6.51096 38.7498 6.86834C38.5676 7.22574 38.4724 7.60925 38.47 7.99695V10.9953C38.4719 11.3833 38.5664 11.7673 38.7483 12.1251C38.9302 12.483 39.1957 12.8077 39.5297 13.0808C39.864 13.3539 40.2601 13.57 40.6954 13.7167C41.1307 13.8633 41.597 13.9377 42.0672 13.9356H52.9677V16.894H38.7292V19.8523H52.9895C53.4595 19.8544 53.9251 19.7801 54.3601 19.6337C54.7952 19.4873 55.1912 19.2716 55.525 18.9989C55.8591 18.7262 56.1248 18.402 56.307 18.0446C56.4891 17.6872 56.5843 17.3037 56.5867 16.916V13.9176C56.5848 13.5296 56.4903 13.1457 56.3084 12.7878C56.1265 12.43 55.861 12.1052 55.527 11.8321C55.1927 11.559 54.7966 11.343 54.3613 11.1963C53.926 11.0496 53.4597 10.9752 52.9895 10.9773Z" fill="white"/>
    <path d="M74.0785 5.06064H63.1513C62.6807 5.05749 62.2139 5.13099 61.7776 5.27694C61.3416 5.4229 60.9446 5.63842 60.6095 5.91121C60.2743 6.18398 60.0078 6.50861 59.8252 6.86653C59.6423 7.22445 59.5469 7.60862 59.5444 7.997V16.916C59.5469 17.3044 59.6423 17.6886 59.8252 18.0465C60.0078 18.4044 60.2743 18.729 60.6095 19.0018C60.9446 19.2746 61.3416 19.4901 61.7776 19.6361C62.2139 19.782 62.6807 19.8555 63.1513 19.8524H74.0785C74.5485 19.8545 75.0141 19.7802 75.4491 19.6338C75.8842 19.4873 76.2802 19.2716 76.614 18.999C76.9481 18.7263 77.2138 18.402 77.396 18.0446C77.5781 17.6872 77.6733 17.3037 77.6757 16.916V7.997C77.6733 7.6093 77.5781 7.22579 77.396 6.86839C77.2138 6.51101 76.9481 6.18671 76.614 5.91405C76.2802 5.64138 75.8842 5.42568 75.4491 5.27924C75.0141 5.13282 74.5485 5.05855 74.0785 5.06064ZM74.0519 16.894H63.178V8.01899H74.0471L74.0519 16.894Z" fill="white"/>
    <path d="M112.352 5.06077H101.693C101.223 5.05867 100.758 5.13295 100.323 5.27936C99.8878 5.4258 99.4917 5.6415 99.1579 5.91417C98.8239 6.18684 98.5581 6.51113 98.376 6.86851C98.1938 7.22591 98.0986 7.60942 98.0962 7.99712V19.8525H101.73V14.9932H112.34V19.8525H115.973V7.99712C115.971 7.60772 115.875 7.22258 115.691 6.86386C115.507 6.50516 115.24 6.17998 114.903 5.90703C114.566 5.6341 114.168 5.41883 113.73 5.27359C113.292 5.12835 112.824 5.05603 112.352 5.06077ZM112.325 12.0349H101.715V8.01911H112.325V12.0349Z" fill="white"/>
    <path d="M154.779 5.06059H144.121C143.651 5.05849 143.185 5.13277 142.75 5.27919C142.315 5.42563 141.919 5.64133 141.585 5.91399C141.251 6.18666 140.986 6.51096 140.803 6.86834C140.621 7.22574 140.526 7.60925 140.524 7.99695V19.8523H144.157V14.993H154.743V19.8523H158.376V7.99695C158.374 7.60925 158.279 7.22574 158.097 6.86834C157.914 6.51096 157.649 6.18666 157.315 5.91399C156.981 5.64133 156.585 5.42563 156.15 5.27919C155.715 5.13277 155.249 5.05849 154.779 5.06059ZM154.743 12.0347H144.133V8.01894H154.743V12.0347Z" fill="white"/>
    <path d="M133.668 16.894H132.215L127.019 6.29988C126.841 5.93438 126.534 5.62114 126.139 5.40034C125.744 5.17953 125.277 5.06121 124.8 5.06057H121.576C121.262 5.05925 120.952 5.10889 120.662 5.20661C120.372 5.30436 120.108 5.44828 119.885 5.63017C119.662 5.81209 119.485 6.02839 119.364 6.26678C119.243 6.50514 119.179 6.76092 119.178 7.01948V19.8523H122.811V8.01892H124.265L129.458 18.613C129.639 18.9778 129.948 19.2898 130.345 19.5091C130.742 19.7284 131.209 19.8451 131.687 19.8443H134.911C135.224 19.8456 135.535 19.796 135.825 19.6983C136.115 19.6005 136.379 19.4566 136.602 19.2747C136.824 19.0928 137.001 18.8765 137.123 18.6381C137.244 18.3997 137.307 18.144 137.309 17.8854V5.06057H133.668V16.894Z" fill="white"/>
    <path d="M84.519 5.06055H80.8855V16.9159C80.8879 17.3045 80.9836 17.6888 81.1665 18.0468C81.3494 18.4049 81.6161 18.7296 81.9513 19.0024C82.2866 19.2752 82.6841 19.4907 83.1204 19.6366C83.5569 19.7824 84.0239 19.8557 84.4948 19.8523H95.3954V16.8939H84.519V5.06055Z" fill="white"/>
  </g>
</svg>