<svg xmlns="http://www.w3.org/2000/svg" width="101" height="32" viewBox="0 0 101 32" fill="none">
  <path d="M13.2371 16.9312C13.4488 16.9457 14.0584 16.981 14.8988 16.981C15.9082 16.981 16.4131 16.9395 16.5072 16.9312V14.7973C19.7494 14.938 22.1659 15.4842 22.1659 16.1377C22.1655 16.791 19.7469 17.3365 16.5072 17.4771V17.4737C16.4151 17.4799 15.94 17.5063 14.8837 17.5063C14.0391 17.5063 13.4467 17.484 13.2371 17.4737V17.4754C9.98857 17.3368 7.56508 16.7906 7.56508 16.1351C7.56587 15.4818 9.99124 14.9342 13.2371 14.7956V16.9312Z" fill="#E8EDFF"/>
  <path fill-rule="evenodd" clip-rule="evenodd" d="M15.0894 3.42578C22.436 3.42583 28.3911 9.18444 28.3913 16.2881C28.3913 23.3919 22.4361 29.1513 15.0894 29.1513C7.74268 29.1513 1.78662 23.392 1.78662 16.2881C1.78681 9.18441 7.74279 3.42578 15.0894 3.42578ZM8.71598 12.6652H13.2398V14.5764C9.56345 14.7398 6.79988 15.4427 6.79988 16.2864C6.79994 17.1301 9.56563 17.8335 13.2398 17.999V24.1236H16.509V17.999C20.1789 17.8356 22.9382 17.1318 22.9382 16.2881C22.9375 15.4466 20.1784 14.7415 16.509 14.5781L16.5072 12.6652H21.0301V9.75163H8.71598V12.6652Z" fill="#E8EDFF"/>
  <path d="M39.6914 10.5483V13.6378H42.7967V15.956H39.67V20.6564C39.67 21.6945 40.2624 22.2012 41.1307 22.2012C41.5648 22.2012 42.0674 22.0688 42.478 21.8703L43.2544 24.1657C42.4567 24.4739 41.7937 24.6062 40.9489 24.629C38.5066 24.7179 36.909 23.3716 36.909 20.6564V15.956H34.8088V13.6378H36.909V10.8357L39.6914 10.5483ZM93.2282 13.493L93.4335 14.7503C94.3018 13.4041 95.4653 13.2056 96.6073 13.2056C97.7707 13.2056 98.8893 13.6461 99.5052 14.2416L98.2498 16.5805C97.6788 16.1173 97.1548 15.8732 96.2416 15.8732C94.7809 15.8732 93.4335 16.6239 93.4335 18.6319V24.3705H90.649V13.4889L93.2282 13.493ZM86.4038 17.6641C86.222 16.2517 85.08 15.5444 83.4824 15.5444C81.9768 15.5444 80.7428 16.2517 80.3322 17.6641H86.4038ZM80.2873 19.8933C80.469 21.2396 81.6795 22.2115 83.6428 22.2115C84.6694 22.2115 86.0167 21.8352 86.6562 21.1962L88.4355 22.896C87.2486 24.0872 85.3088 24.662 83.5957 24.662C79.7162 24.662 77.4086 22.3439 77.4086 18.8573C77.4086 15.5465 79.7376 13.1622 83.3904 13.1622C87.1566 13.1622 89.5091 15.4142 89.075 19.8933H80.2873ZM68.0071 8.92285V14.9695C69.0123 13.7122 70.2442 13.3359 71.5231 13.3359C74.7182 13.3359 76.134 15.4328 76.134 18.634V24.3725H73.3495V18.6567C73.3495 16.6694 72.2759 15.8319 70.7916 15.8319C69.147 15.8319 68.0071 17.1781 68.0071 18.8118V24.3746H65.2226V8.92492L68.0071 8.92285ZM60.6117 10.4242V13.5137H63.717V15.8319H60.5903V20.5323C60.5903 21.5705 61.1848 22.0771 62.051 22.0771C62.4851 22.0771 62.9877 21.9448 63.3983 21.7462L64.1747 24.0417C63.3769 24.3498 62.714 24.4821 61.8692 24.5049C59.4269 24.5938 57.8293 23.2455 57.8293 20.5323V15.8319H55.7291V13.5137H57.8293V10.7116L60.6117 10.4242ZM52.9189 17.6641C52.7372 16.2517 51.5951 15.5444 49.9975 15.5444C48.4919 15.5444 47.2579 16.2517 46.8473 17.6641H52.9189ZM46.8024 19.8933C46.9842 21.2396 48.1947 22.2115 50.1579 22.2115C51.1845 22.2115 52.5318 21.8352 53.1713 21.1962L54.9507 22.896C53.7637 24.0872 51.8239 24.662 50.1109 24.662C46.2292 24.662 43.9238 22.3439 43.9238 18.8573C43.9238 15.5465 46.2528 13.1622 49.9034 13.1622C53.6696 13.1622 56.02 15.4142 55.588 19.8933H46.8024Z" fill="#E8EDFF"/>
</svg>