<svg xmlns="http://www.w3.org/2000/svg" width="89" height="28" viewBox="0 0 89 28" fill="none">
  <g clip-path="url(#clip0_270_35269)">
    <path d="M36.28 11.6812H34.836V21.5114H36.28V11.6812Z" fill="#E8EDFF"/>
    <path d="M42.7489 7.51719H30.9788V9.02275H42.7489V7.51719Z" fill="#E8EDFF"/>
    <path d="M38.8884 11.6812H37.4443V21.5114H38.8884V11.6812Z" fill="#E8EDFF"/>
    <path d="M78.7811 21.5216H80.2382V15.6011L78.7811 13.9124V21.5216Z" fill="#E8EDFF"/>
    <path d="M86.4533 7.51719V18.4935L76.1468 6.55078V21.5216H77.6006V10.5419L87.9136 22.488V7.51719H86.4533Z" fill="#E8EDFF"/>
    <path d="M66.7118 7.51041C63.0075 7.51041 59.9958 10.6504 59.9958 14.5126C59.9958 18.3749 63.0075 21.5148 66.7118 21.5148C70.4162 21.5148 73.4278 18.3749 73.4278 14.5126C73.4278 10.6538 70.4162 7.51041 66.7118 7.51041ZM66.7118 20.0059C63.8075 20.0059 61.4431 17.5441 61.4431 14.5126C61.4431 11.4812 63.8043 9.01936 66.7118 9.01936C69.6161 9.01936 71.9806 11.4812 71.9806 14.5126C71.9806 17.5407 69.6161 20.0059 66.7118 20.0059Z" fill="#E8EDFF"/>
    <path d="M66.7118 13.5055C66.1785 13.5055 65.7459 13.9565 65.7459 14.5126C65.7459 15.0687 66.1785 15.5197 66.7118 15.5197C67.2452 15.5197 67.6778 15.0687 67.6778 14.5126C67.6778 13.9565 67.2452 13.5055 66.7118 13.5055Z" fill="#E8EDFF"/>
    <path d="M57.4688 11.8135C57.4688 9.44661 55.6345 7.52058 53.3806 7.52058H45.6987V21.525H47.133V9.0397H53.3806C54.8279 9.0397 56.0052 10.2842 56.0052 11.8135C56.0052 13.336 54.8442 14.5737 53.4099 14.5906L48.3135 14.5872V21.525H49.7478V16.1063H53.1074L55.8524 21.5216H57.5208L54.6555 15.8927C56.311 15.3197 57.4688 13.6513 57.4688 11.8135Z" fill="#E8EDFF"/>
    <path d="M21.0494 4.74494L1.47705 0.991211L11.7771 28.0099L26.1263 9.78043L21.0494 4.74494ZM20.7372 6.3997L23.7326 9.36674L15.5433 10.913L20.7372 6.3997ZM13.7643 10.6044L5.13264 3.14104L19.2379 5.84698L13.7643 10.6044ZM13.1463 11.9269L11.7413 24.0561L4.1537 4.14475L13.1463 11.9269ZM14.4472 12.5677L23.5147 10.8553L13.117 24.0663L14.4472 12.5677Z" fill="#E8EDFF"/>
  </g>
  <defs>
    <clipPath id="clip0_270_35269">
      <rect width="88.1875" height="26.5625" fill="white" transform="translate(0.8125 0.71875)"/>
    </clipPath>
  </defs>
</svg>