<svg width="28" height="29" viewBox="0 0 28 29" fill="none" xmlns="http://www.w3.org/2000/svg">
<rect width="28" height="28" rx="14" transform="matrix(1 0 0 -1 0 28.8838)" fill="#298AFF"/>
<rect x="0.5" y="-0.5" width="27" height="27" rx="13.5" transform="matrix(1 0 0 -1 0 27.8838)" stroke="white" stroke-opacity="0.2"/>
<path d="M12.8824 18.0069V19.7299C12.1765 19.7299 11.7059 20.1607 11.7059 20.8069C11.7059 21.453 12.1765 21.8838 12.8824 21.8838H15.2353C15.9412 21.8838 16.4118 21.453 16.4118 20.8069C16.4118 20.1607 15.9412 19.7299 15.2353 19.7299V18.0069C15.8235 18.4376 16.6471 18.653 17.3529 18.653C18.2941 18.653 19.2353 18.3299 19.9412 17.6838C20.6471 17.0376 21 16.1761 21 15.3146C21 14.453 20.6471 13.5915 19.9412 12.9453L14.8824 8.20687C14.4118 7.7761 13.7059 7.7761 13.2353 8.20687L8.05882 12.8376C7.35294 13.4838 7 14.3453 7 15.2069C7 16.0684 7.35294 16.9299 8.05882 17.5761C9.35294 18.8684 11.4706 18.9761 12.8824 18.0069Z" fill="#E8EDFF"/>
</svg>
