<svg xmlns="http://www.w3.org/2000/svg" width="200" height="200" viewBox="0 0 200 200" fill="none">
  <g filter="url(#filter0_dddddd_118_24867)">
    <rect width="200" height="200" rx="100" fill="#298AFF"/>
    <rect x="2" y="2" width="196" height="196" rx="98" stroke="white" stroke-opacity="0.2" stroke-width="4"/>
    <path d="M93.454 89.631V100.462C89.319 100.462 86.563 103.169 86.563 107.231C86.563 111.292 89.319 114 93.454 114H107.235C111.37 114 114.126 111.292 114.126 107.231C114.126 103.169 111.37 100.462 107.235 100.462V89.631C110.681 92.338 115.504 93.692 119.639 93.692C125.151 93.692 130.664 91.662 134.798 87.6C138.933 83.538 141 78.123 141 72.708C141 67.2923 138.933 61.8769 134.798 57.8154L105.168 28.0308C102.412 25.3231 98.277 25.3231 95.521 28.0308L65.2017 57.1385C61.0672 61.2 59 66.6154 59 72.031C59 77.446 61.0672 82.862 65.2017 86.923C72.782 95.046 85.185 95.723 93.454 89.631Z" fill="#E8EDFF"/>
  </g>
  <defs>
    <filter id="filter0_dddddd_118_24867" x="0" y="0" width="200" height="200" filterUnits="userSpaceOnUse" color-interpolation-filters="sRGB">
      <feFlood flood-opacity="0" result="BackgroundImageFix"/>
      <feColorMatrix in="SourceAlpha" type="matrix" values="0 0 0 0 0 0 0 0 0 0 0 0 0 0 0 0 0 0 127 0" result="hardAlpha"/>
      <feOffset dy="1.27294"/>
      <feGaussianBlur stdDeviation="0.428925"/>
      <feColorMatrix type="matrix" values="0 0 0 0 0.160784 0 0 0 0 0.541176 0 0 0 0 1 0 0 0 0.0196802 0"/>
      <feBlend mode="normal" in2="BackgroundImageFix" result="effect1_dropShadow_118_24867"/>
      <feColorMatrix in="SourceAlpha" type="matrix" values="0 0 0 0 0 0 0 0 0 0 0 0 0 0 0 0 0 0 127 0" result="hardAlpha"/>
      <feOffset dy="3.05905"/>
      <feGaussianBlur stdDeviation="1.03077"/>
      <feColorMatrix type="matrix" values="0 0 0 0 0.160784 0 0 0 0 0.541176 0 0 0 0 1 0 0 0 0.0282725 0"/>
      <feBlend mode="normal" in2="effect1_dropShadow_118_24867" result="effect2_dropShadow_118_24867"/>
      <feColorMatrix in="SourceAlpha" type="matrix" values="0 0 0 0 0 0 0 0 0 0 0 0 0 0 0 0 0 0 127 0" result="hardAlpha"/>
      <feOffset dy="5.75991"/>
      <feGaussianBlur stdDeviation="1.94084"/>
      <feColorMatrix type="matrix" values="0 0 0 0 0.160784 0 0 0 0 0.541176 0 0 0 0 1 0 0 0 0.035 0"/>
      <feBlend mode="normal" in2="effect2_dropShadow_118_24867" result="effect3_dropShadow_118_24867"/>
      <feColorMatrix in="SourceAlpha" type="matrix" values="0 0 0 0 0 0 0 0 0 0 0 0 0 0 0 0 0 0 127 0" result="hardAlpha"/>
      <feOffset dy="10.2747"/>
      <feGaussianBlur stdDeviation="3.46213"/>
      <feColorMatrix type="matrix" values="0 0 0 0 0.160784 0 0 0 0 0.541176 0 0 0 0 1 0 0 0 0.0417275 0"/>
      <feBlend mode="normal" in2="effect3_dropShadow_118_24867" result="effect4_dropShadow_118_24867"/>
      <feColorMatrix in="SourceAlpha" type="matrix" values="0 0 0 0 0 0 0 0 0 0 0 0 0 0 0 0 0 0 127 0" result="hardAlpha"/>
      <feOffset dy="19.2177"/>
      <feGaussianBlur stdDeviation="6.47553"/>
      <feColorMatrix type="matrix" values="0 0 0 0 0.160784 0 0 0 0 0.541176 0 0 0 0 1 0 0 0 0.0503198 0"/>
      <feBlend mode="normal" in2="effect4_dropShadow_118_24867" result="effect5_dropShadow_118_24867"/>
      <feColorMatrix in="SourceAlpha" type="matrix" values="0 0 0 0 0 0 0 0 0 0 0 0 0 0 0 0 0 0 127 0" result="hardAlpha"/>
      <feOffset dy="46"/>
      <feGaussianBlur stdDeviation="15.5"/>
      <feColorMatrix type="matrix" values="0 0 0 0 0.160784 0 0 0 0 0.541176 0 0 0 0 1 0 0 0 0.07 0"/>
      <feBlend mode="normal" in2="effect5_dropShadow_118_24867" result="effect6_dropShadow_118_24867"/>
      <feBlend mode="normal" in="SourceGraphic" in2="effect6_dropShadow_118_24867" result="shape"/>
    </filter>
  </defs>
</svg>