<svg xmlns="http://www.w3.org/2000/svg" width="23" height="25" viewBox="0 0 23 25" fill="none">
  <path d="M9.38392 17.5756V20.5029C8.27356 20.5029 7.53331 21.2347 7.53331 22.3325C7.53331 23.4302 8.27356 24.162 9.38392 24.162H13.0851C14.1955 24.162 14.9358 23.4302 14.9358 22.3325C14.9358 21.2347 14.1955 20.5029 13.0851 20.5029V17.5756C14.0105 18.3075 15.3059 18.6734 16.4163 18.6734C17.8967 18.6734 19.3772 18.1245 20.4876 17.0268C21.598 15.9291 22.1532 14.4654 22.1532 13.0018C22.1532 11.5381 21.598 10.0745 20.4876 8.97679L12.53 0.926793C11.7897 0.194975 10.6794 0.194975 9.93911 0.926793L1.79641 8.79383C0.686043 9.89156 0.130859 11.3552 0.130859 12.8188C0.130859 14.2825 0.686043 15.7461 1.79641 16.8438C3.83209 19.0393 7.16319 19.2222 9.38392 17.5756Z" fill="#298AFF"/>
</svg>