<svg width="188" height="29" viewBox="0 0 188 29" fill="none" xmlns="http://www.w3.org/2000/svg">
<path d="M165.708 5.23694C165.633 3.90096 166.63 2.75584 167.966 2.68162C169.302 2.6074 170.447 3.60408 170.521 4.94005C170.596 6.27603 169.599 7.42114 168.263 7.49537C168.231 7.49537 168.157 7.49537 168.114 7.49537C166.821 7.52717 165.75 6.5305 165.708 5.23694ZM165.898 9.52053H170.299V25.4144H165.898V9.52053ZM48.195 4.24026H39.6914V25.4568H48.7887C53.5601 25.4568 56.1048 22.9757 56.1048 19.5827C56.2108 16.879 54.1432 14.5569 51.4501 14.4403V14.2176C53.7085 13.889 55.3732 11.9274 55.299 9.66897C55.2566 6.49869 52.8921 4.24026 48.195 4.24026ZM50.7185 10.3794C50.7185 12.044 49.2765 13.0831 47.5376 13.0831L44.134 13.1149V7.82406H47.6118C49.6052 7.82406 50.7185 8.71471 50.7185 10.3794ZM51.3759 19.095C51.3759 20.6854 50.3368 21.7245 47.8239 21.7245H44.1234V16.105H47.8345C49.531 15.8505 51.0896 17.0274 51.3441 18.7345C51.3759 18.8405 51.3759 18.989 51.3759 19.095ZM58.2572 25.4568H62.7316L62.6574 4.24026H58.2572V25.4568ZM65.0537 17.547C65.0537 12.6272 68.0437 9.34028 72.8893 9.34028C77.6924 9.34028 80.7249 12.6272 80.7249 17.547C80.7249 22.4667 77.7348 25.7537 72.8893 25.7537C68.0543 25.7537 65.0537 22.4667 65.0537 17.547ZM76.2186 17.547C76.2186 14.7796 75.0735 12.7438 72.8893 12.7438C70.7051 12.7438 69.5281 14.7796 69.5281 17.547C69.5281 20.3143 70.6732 22.3501 72.8893 22.3501C75.1053 22.3501 76.2186 20.3143 76.2186 17.547ZM90.1933 9.34028C85.3477 9.34028 82.3895 12.6696 82.3895 17.547C82.3895 22.4243 85.3053 25.7537 90.1933 25.7537C94.3709 25.7537 97.0322 23.2726 97.2549 19.6145H93.0773C92.9713 21.1308 91.7095 22.3183 90.1933 22.2759C88.1257 22.2759 86.7897 20.4628 86.7897 17.5046C86.7897 14.5463 88.1257 12.7756 90.1933 12.7756C91.7095 12.7438 92.9607 13.9208 93.0773 15.437H97.2549C97.1064 11.7472 94.3284 9.34028 90.1933 9.34028ZM99.5769 4.24026H104.009V15.5536H104.232L109.332 9.53114H114.4L108.483 16.4019L114.697 25.425H109.522L105.196 18.989L104.009 20.3568V25.4568H99.6087V4.24026H99.5769ZM122.501 9.34028C117.655 9.34028 114.697 12.6696 114.697 17.547C114.697 22.4243 117.613 25.7537 122.532 25.7537C126.742 25.7537 129.403 23.2726 129.594 19.6145H125.459C125.353 21.1308 124.091 22.3183 122.575 22.2759C120.507 22.2759 119.171 20.4628 119.171 17.5046C119.171 14.5463 120.507 12.7756 122.575 12.7756C124.091 12.7438 125.385 13.9208 125.459 15.437H129.594C129.445 11.7472 126.636 9.34028 122.501 9.34028ZM136.284 25.4568H131.884V4.24026H136.168V12.3727H136.348C137.09 10.4112 139.009 9.19184 141.119 9.34028C144.406 9.34028 146.622 11.5987 146.622 15.331V25.4568H142.201V16.105C142.423 14.6312 141.384 13.2634 139.911 13.0407C139.73 13.0089 139.539 13.0089 139.359 13.0089C137.737 12.9347 136.327 14.1964 136.253 15.8187C136.253 15.9671 136.253 16.1156 136.253 16.264L136.284 25.4568ZM154.765 16.105C151.627 16.4019 148.775 17.4728 148.775 21.0247C148.775 24.1632 151.033 25.7537 154.066 25.7537C155.985 25.9021 157.798 24.9054 158.72 23.2408H158.826V25.4568H163.004V14.6948C163.004 10.8883 159.791 9.29787 156.239 9.29787C152.433 9.29787 149.92 11.111 149.294 14.0268L153.366 14.3555C153.769 13.168 154.956 12.4363 156.176 12.5848C157.692 12.5848 158.54 13.3588 158.54 14.6524C158.572 15.7021 157.501 15.8081 154.765 16.105ZM158.614 17.9923V19.763C158.508 21.4595 157.066 22.7212 155.359 22.647C155.327 22.647 155.327 22.647 155.285 22.647C153.917 22.647 152.952 22.0214 152.952 20.8021C152.952 19.5827 153.991 18.9572 155.539 18.7345C156.621 18.6179 157.649 18.3634 158.614 17.9923ZM173.183 25.4568H177.657L177.583 16.2534C177.403 14.663 178.548 13.221 180.138 12.9983C180.287 12.9983 180.435 12.9665 180.584 12.9983C182.1 12.9241 183.351 14.0692 183.425 15.5854C183.425 15.7657 183.425 15.9141 183.393 16.105V25.4568H187.825V15.331C187.825 11.6305 185.641 9.34028 182.322 9.34028C180.255 9.19184 178.293 10.4112 177.519 12.3727H177.339V9.56294H173.13V25.4568H173.183Z" fill="#E8EDFF"/>
<path d="M3.24911 10.9629L1.95555 12.2565C0.481734 13.656 0.439322 15.9887 1.84952 17.4731C1.88132 17.5049 1.92374 17.5473 1.95555 17.5791L12.3464 28.0761C12.6009 28.3305 12.866 28.5532 13.1947 28.7016V15.9569L3.24911 10.9629Z" fill="#E8EDFF"/>
<path d="M26.6825 10.9629L27.976 12.2565C29.418 13.656 29.4922 15.9887 28.0821 17.4731C28.0502 17.5049 28.0078 17.5473 27.976 17.5791L17.5533 28.0443C17.2988 28.2987 17.0338 28.5214 16.7051 28.6698V15.9569L26.6825 10.9629Z" fill="#E8EDFF"/>
<path d="M24.1693 8.3008L17.6591 1.79058C16.2171 0.348576 13.8844 0.316768 12.4424 1.71636C12.4106 1.74817 12.3682 1.74817 12.3682 1.79058L5.82617 8.3008L14.9553 12.8495L24.1693 8.3008Z" fill="#E8EDFF"/>
</svg>
