<svg xmlns="http://www.w3.org/2000/svg" width="195" height="34" viewBox="0 0 195 34" fill="none">
  <path d="M83.8371 12.543L82.3055 14.0906C81.8816 14.5021 81.5444 14.9959 81.314 15.5423C81.0836 16.0888 80.9648 16.6766 80.9648 17.2706C80.9648 17.8646 81.0836 18.4524 81.314 18.9989C81.5444 19.5454 81.8816 20.0391 82.3055 20.4506L94.6434 33.0421C94.9371 33.3446 95.2756 33.5947 95.6504 33.7841V18.5214L83.8371 12.543Z" fill="white"/>
  <path d="M111.661 12.543L113.193 14.0906C113.617 14.5021 113.954 14.9959 114.185 15.5423C114.415 16.0888 114.534 16.6766 114.534 17.2706C114.534 17.8646 114.415 18.4524 114.185 18.9989C113.954 19.5454 113.617 20.0391 113.193 20.4506L100.854 33.0421C100.56 33.3446 100.222 33.5947 99.8467 33.7841V18.5214L111.661 12.543Z" fill="white"/>
  <path d="M108.697 9.38473L100.976 1.56187C100.568 1.136 100.078 0.797411 99.5379 0.566189C98.9973 0.334966 98.4163 0.21582 97.8292 0.21582C97.2422 0.21582 96.6611 0.334966 96.1205 0.566189C95.5799 0.797411 95.0908 1.136 94.6822 1.56187L86.9404 9.38473L97.7873 14.8544L108.697 9.38473Z" fill="white"/>
</svg>