<svg width="188" height="29" viewBox="0 0 188 29" fill="none" xmlns="http://www.w3.org/2000/svg">
<path d="M165.106 5.00061C165.032 3.66464 166.028 2.51952 167.364 2.4453C168.7 2.37107 169.846 3.36775 169.92 4.70373C169.994 6.0397 168.997 7.18482 167.661 7.25904C167.63 7.25904 167.555 7.25904 167.513 7.25904C166.219 7.29085 165.148 6.29417 165.106 5.00061ZM165.297 9.2842H169.697V25.178H165.297V9.2842ZM47.5934 4.00393H39.0898V25.2204H48.1872C52.9585 25.2204 55.5032 22.7394 55.5032 19.3464C55.6093 16.6427 53.5417 14.3206 50.8485 14.204V13.9813C53.107 13.6526 54.7716 11.6911 54.6974 9.43264C54.655 6.26236 52.2905 4.00393 47.5934 4.00393ZM50.1169 10.143C50.1169 11.8077 48.6749 12.8468 46.936 12.8468L43.5325 12.8786V7.58773H47.0103C49.0036 7.58773 50.1169 8.47838 50.1169 10.143ZM50.7743 18.8587C50.7743 20.4491 49.7352 21.4882 47.2223 21.4882H43.5219V15.8686H47.2329C48.9294 15.6142 50.488 16.7911 50.7425 18.4982C50.7743 18.6042 50.7743 18.7526 50.7743 18.8587ZM57.6556 25.2204H62.1301L62.0558 4.00393H57.6556V25.2204ZM64.4521 17.3106C64.4521 12.3909 67.4422 9.10395 72.2877 9.10395C77.0908 9.10395 80.1233 12.3909 80.1233 17.3106C80.1233 22.2304 77.1333 25.5173 72.2877 25.5173C67.4528 25.5173 64.4521 22.2304 64.4521 17.3106ZM75.617 17.3106C75.617 14.5433 74.4719 12.5075 72.2877 12.5075C70.1035 12.5075 68.9266 14.5433 68.9266 17.3106C68.9266 20.078 70.0717 22.1138 72.2877 22.1138C74.5037 22.1138 75.617 20.078 75.617 17.3106ZM89.5917 9.10395C84.7462 9.10395 81.788 12.4333 81.788 17.3106C81.788 22.188 84.7038 25.5173 89.5917 25.5173C93.7693 25.5173 96.4306 23.0362 96.6533 19.3782H92.4757C92.3697 20.8944 91.108 22.082 89.5917 22.0396C87.5242 22.0396 86.1882 20.2265 86.1882 17.2682C86.1882 14.31 87.5242 12.5393 89.5917 12.5393C91.108 12.5075 92.3591 13.6844 92.4757 15.2007H96.6533C96.5049 11.5108 93.7269 9.10395 89.5917 9.10395ZM98.9754 4.00393H103.407V15.3173H103.63L108.73 9.29481H113.798L107.882 16.1655L114.095 25.1886H108.921L104.595 18.7526L103.407 20.1204V25.2204H99.0072V4.00393H98.9754ZM121.899 9.10395C117.053 9.10395 114.095 12.4333 114.095 17.3106C114.095 22.188 117.011 25.5173 121.931 25.5173C126.14 25.5173 128.801 23.0362 128.992 19.3782H124.857C124.751 20.8944 123.489 22.082 121.973 22.0396C119.906 22.0396 118.57 20.2265 118.57 17.2682C118.57 14.31 119.906 12.5393 121.973 12.5393C123.489 12.5075 124.783 13.6844 124.857 15.2007H128.992C128.844 11.5108 126.034 9.10395 121.899 9.10395ZM135.683 25.2204H131.283V4.00393H135.566V12.1364H135.746C136.489 10.1749 138.408 8.95551 140.518 9.10395C143.805 9.10395 146.021 11.3624 146.021 15.0946V25.2204H141.599V15.8686C141.822 14.3948 140.783 13.027 139.309 12.8044C139.129 12.7726 138.938 12.7726 138.758 12.7726C137.135 12.6984 135.725 13.9601 135.651 15.5824C135.651 15.7308 135.651 15.8792 135.651 16.0277L135.683 25.2204ZM154.164 15.8686C151.025 16.1655 148.173 17.2364 148.173 20.7884C148.173 23.9269 150.432 25.5173 153.464 25.5173C155.383 25.6658 157.196 24.6691 158.119 23.0044H158.225V25.2204H162.402V14.4584C162.402 10.652 159.19 9.06154 155.638 9.06154C151.831 9.06154 149.318 10.8746 148.693 13.7905L152.764 14.1192C153.167 12.9316 154.355 12.2 155.574 12.3485C157.09 12.3485 157.938 13.1225 157.938 14.416C157.97 15.4657 156.899 15.5718 154.164 15.8686ZM158.013 17.756V19.5267C157.907 21.2231 156.465 22.4849 154.758 22.4107C154.726 22.4107 154.726 22.4107 154.683 22.4107C153.316 22.4107 152.351 21.7851 152.351 20.5658C152.351 19.3464 153.39 18.7208 154.938 18.4982C156.019 18.3815 157.048 18.1271 158.013 17.756ZM172.581 25.2204H177.056L176.981 16.0171C176.801 14.4266 177.946 12.9846 179.537 12.762C179.685 12.762 179.834 12.7302 179.982 12.762C181.498 12.6878 182.749 13.8329 182.824 15.3491C182.824 15.5293 182.824 15.6778 182.792 15.8686V25.2204H187.224V15.0946C187.224 11.3942 185.04 9.10395 181.721 9.10395C179.653 8.95551 177.692 10.1749 176.918 12.1364H176.737V9.32661H172.528V25.2204H172.581Z" fill="#E8EDFF"/>
<path d="M2.64754 10.7266L1.35398 12.0201C-0.119828 13.4197 -0.16224 15.7524 1.24795 17.2368C1.27976 17.2686 1.32217 17.311 1.35398 17.3428L11.7449 27.8397C11.9994 28.0942 12.2644 28.3169 12.5931 28.4653V15.7206L2.64754 10.7266Z" fill="#E8EDFF"/>
<path d="M26.0789 10.7266L27.3725 12.0201C28.8145 13.4197 28.8887 15.7524 27.4785 17.2368C27.4467 17.2686 27.4043 17.311 27.3725 17.3428L16.9498 27.8079C16.6953 28.0624 16.4303 28.2851 16.1016 28.4335V15.7206L26.0789 10.7266Z" fill="#E8EDFF"/>
<path d="M23.5658 8.06447L17.0556 1.55425C15.6136 0.112248 13.2809 0.0804394 11.8389 1.48003C11.8071 1.51184 11.7647 1.51184 11.7647 1.55425L5.22266 8.06447L14.3518 12.6131L23.5658 8.06447Z" fill="#E8EDFF"/>
</svg>
