<svg width="100" height="40" viewBox="0 0 100 40" fill="none" xmlns="http://www.w3.org/2000/svg">
<path d="M19.8873 13.4516C19.9866 8.53673 17.2038 4.25398 15.7545 3.22467C15.7479 3.21805 15.6189 3.14855 15.6288 3.34051L15.6255 3.34713C15.4832 12.6308 10.7118 15.1296 8.11767 18.5353C2.36025 26.1013 7.16473 34.7329 13.3887 36.3679C13.4946 36.3944 13.7825 36.4804 14.3284 36.593C14.613 36.6525 14.6957 36.4109 14.4873 36.0502C13.7427 34.7496 12.4192 32.5652 12.1611 29.7617C11.5589 23.2483 19.7748 19.1741 19.8873 13.4516Z" fill="#E8EDFF"/>
<path d="M23.0278 16.6025C22.9781 16.5661 22.9087 16.5694 22.902 16.6323C22.7697 17.8138 21.5487 20.263 19.9406 22.5533C14.5273 30.2748 17.2538 33.7764 19.3715 36.2058C19.7619 36.6558 19.9572 36.5566 20.1623 36.2357C20.3542 35.9312 20.6454 35.5438 21.8961 34.9515C22.0914 34.8588 26.8164 32.3501 27.3294 26.6375C27.8224 21.1069 24.2785 17.6153 23.0278 16.6025Z" fill="#E8EDFF"/>
<path d="M39.5156 26.5423V13.4514H42.2834V18.8527H47.902V13.4514H50.6634V26.5423H47.902V21.1347H42.2834V26.5423H39.5156Z" fill="#E8EDFF"/>
<path d="M61.2113 13.4514H63.979V21.9529C63.979 22.9074 63.751 23.7426 63.2951 24.4585C62.8434 25.1744 62.2105 25.7327 61.3966 26.1333C60.5827 26.5296 59.6345 26.7277 58.5522 26.7277C57.4655 26.7277 56.5152 26.5296 55.7013 26.1333C54.8874 25.7327 54.2546 25.1744 53.8029 24.4585C53.3512 23.7426 53.1253 22.9074 53.1253 21.9529V13.4514H55.8931V21.7164C55.8931 22.2149 56.0017 22.6581 56.2191 23.0459C56.4407 23.4337 56.7517 23.7384 57.1523 23.96C57.5529 24.1816 58.0195 24.2923 58.5522 24.2923C59.0891 24.2923 59.5557 24.1816 59.952 23.96C60.3526 23.7384 60.6615 23.4337 60.8789 23.0459C61.1005 22.6581 61.2113 22.2149 61.2113 21.7164V13.4514Z" fill="#E8EDFF"/>
<path d="M78.466 19.9969C78.466 21.4244 78.1954 22.6389 77.6542 23.6404C77.1173 24.6418 76.3843 25.4067 75.4553 25.9351C74.5306 26.4593 73.4909 26.7213 72.336 26.7213C71.1727 26.7213 70.1286 26.4571 69.2039 25.9287C68.2792 25.4003 67.5484 24.6354 67.0115 23.634C66.4745 22.6325 66.2061 21.4202 66.2061 19.9969C66.2061 18.5693 66.4745 17.3548 67.0115 16.3534C67.5484 15.352 68.2792 14.5892 69.2039 14.0651C70.1286 13.5367 71.1727 13.2725 72.336 13.2725C73.4909 13.2725 74.5306 13.5367 75.4553 14.0651C76.3843 14.5892 77.1173 15.352 77.6542 16.3534C78.1954 17.3548 78.466 18.5693 78.466 19.9969ZM75.6599 19.9969C75.6599 19.0722 75.5214 18.2923 75.2444 17.6574C74.9717 17.0225 74.586 16.5409 74.0875 16.2128C73.5889 15.8847 73.0051 15.7206 72.336 15.7206C71.667 15.7206 71.0832 15.8847 70.5846 16.2128C70.086 16.5409 69.6982 17.0225 69.4213 17.6574C69.1485 18.2923 69.0122 19.0722 69.0122 19.9969C69.0122 20.9216 69.1485 21.7014 69.4213 22.3364C69.6982 22.9713 70.086 23.4529 70.5846 23.781C71.0832 24.1091 71.667 24.2732 72.336 24.2732C73.0051 24.2732 73.5889 24.1091 74.0875 23.781C74.586 23.4529 74.9717 22.9713 75.2444 22.3364C75.5214 21.7014 75.6599 20.9216 75.6599 19.9969Z" fill="#E8EDFF"/>
<path d="M80.6963 26.5423V13.4514H85.9377C86.9008 13.4514 87.7041 13.5942 88.3475 13.8797C88.991 14.1652 89.4747 14.5615 89.7985 15.0686C90.1224 15.5715 90.2843 16.151 90.2843 16.8073C90.2843 17.3186 90.182 17.7682 89.9775 18.156C89.773 18.5395 89.4917 18.8548 89.1338 19.102C88.7801 19.3449 88.3752 19.5175 87.9193 19.6198V19.7476C88.4178 19.7689 88.8845 19.9095 89.3191 20.1695C89.758 20.4294 90.1139 20.7938 90.3866 21.2625C90.6593 21.727 90.7957 22.281 90.7957 22.9244C90.7957 23.6191 90.6231 24.2391 90.2779 24.7845C89.937 25.3257 89.432 25.754 88.763 26.0693C88.094 26.3847 87.2694 26.5423 86.2893 26.5423H80.6963ZM83.464 24.2796H85.7204C86.4917 24.2796 87.0542 24.1325 87.4079 23.8385C87.7616 23.5402 87.9384 23.1439 87.9384 22.6496C87.9384 22.2874 87.8511 21.9678 87.6764 21.6908C87.5016 21.4138 87.2524 21.1965 86.9285 21.0388C86.6089 20.8811 86.2275 20.8023 85.7843 20.8023H83.464V24.2796ZM83.464 18.9294H85.5159C85.8951 18.9294 86.2318 18.8634 86.5258 18.7313C86.8241 18.5949 87.0585 18.4031 87.2289 18.156C87.4036 17.9088 87.491 17.6127 87.491 17.2675C87.491 16.7945 87.3227 16.4131 86.986 16.1233C86.6536 15.8335 86.1806 15.6887 85.567 15.6887H83.464V18.9294Z" fill="#E8EDFF"/>
<path d="M95.5444 13.4514V26.5423H92.7766V13.4514H95.5444Z" fill="#E8EDFF"/>
</svg>
