<svg width="33" height="59" viewBox="0 0 33 59" fill="none" xmlns="http://www.w3.org/2000/svg">
<path d="M21.8442 19.9218C21.9894 12.7325 17.9189 6.46795 15.799 4.96232C15.7893 4.95264 15.6005 4.85098 15.6151 5.13177L15.6102 5.14145C15.4021 18.7212 8.42277 22.3763 4.62815 27.358C-3.79351 38.4251 3.23425 51.051 12.3384 53.4426C12.4932 53.4813 12.9143 53.6072 13.7129 53.7719C14.1292 53.8589 14.2502 53.5055 13.9453 52.9779C12.8562 51.0754 10.9202 47.8801 10.5427 43.7795C9.66183 34.252 21.6796 28.2923 21.8442 19.9218Z" fill="#E8EDFF"/>
<path d="M26.4385 24.5303C26.3659 24.4771 26.2642 24.4819 26.2545 24.5739C26.0609 26.3022 24.275 29.8848 21.9227 33.2349C14.0044 44.5296 17.9926 49.6515 21.0902 53.2051C21.6613 53.8634 21.9469 53.7183 22.247 53.2487C22.5277 52.8034 22.9536 52.2367 24.7832 51.3704C25.0687 51.2347 31.9803 47.5651 32.7306 39.2091C33.4518 31.1192 28.268 26.0117 26.4385 24.5303Z" fill="#E8EDFF"/>
</svg>
