<svg width="51" height="51" viewBox="0 0 51 51" fill="none" xmlns="http://www.w3.org/2000/svg">
<path d="M4.53208 18.8613L2.25085 21.1665C1.61945 21.7794 1.1171 22.5149 0.773946 23.3288C0.430791 24.1428 0.253906 25.0184 0.253906 25.9031C0.253906 26.7879 0.430791 27.6635 0.773946 28.4774C1.1171 29.2913 1.61945 30.0268 2.25085 30.6398L20.6278 49.3947C21.0653 49.8452 21.5694 50.2178 22.1278 50.4999V27.7662L4.53208 18.8613Z" fill="#E8EDFF"/>
<path d="M45.9757 18.8613L48.2569 21.1665C48.8883 21.7794 49.3907 22.5149 49.7338 23.3288C50.077 24.1428 50.2539 25.0184 50.2539 25.9031C50.2539 26.7879 50.077 27.6635 49.7338 28.4774C49.3907 29.2913 48.8883 30.0268 48.2569 30.6398L29.8779 49.3947C29.4404 49.8452 28.9363 50.2178 28.3779 50.4999V27.7662L45.9757 18.8613Z" fill="#E8EDFF"/>
<path d="M41.5603 14.157L30.0604 2.50493C29.4517 1.8706 28.7232 1.36628 27.9179 1.02187C27.1127 0.677467 26.2473 0.5 25.3729 0.5C24.4985 0.5 23.6331 0.677467 22.8279 1.02187C22.0227 1.36628 21.2941 1.8706 20.6854 2.50493L9.1543 14.157L25.3104 22.3041L41.5603 14.157Z" fill="#E8EDFF"/>
</svg>
