<svg width="47" height="34" viewBox="0 0 47 34" fill="none" xmlns="http://www.w3.org/2000/svg">
<path d="M9.33711 12.3271L7.80555 13.8748C7.38164 14.2863 7.04437 14.78 6.81399 15.3265C6.5836 15.873 6.46484 16.4608 6.46484 17.0548C6.46484 17.6488 6.5836 18.2366 6.81399 18.7831C7.04437 19.3295 7.38164 19.8233 7.80555 20.2348L20.1434 32.8263C20.4371 33.1288 20.7756 33.3789 21.1504 33.5683V18.3056L9.33711 12.3271Z" fill="white"/>
<path d="M37.1614 12.3271L38.693 13.8748C39.1169 14.2863 39.4541 14.78 39.6845 15.3265C39.9149 15.873 40.0337 16.4608 40.0337 17.0548C40.0337 17.6488 39.9149 18.2366 39.6845 18.7831C39.4541 19.3295 39.1169 19.8233 38.693 20.2348L26.3537 32.8263C26.06 33.1288 25.7215 33.3789 25.3467 33.5683V18.3056L37.1614 12.3271Z" fill="white"/>
<path d="M34.197 9.16891L26.4763 1.34604C26.0676 0.920179 25.5785 0.581591 25.0379 0.350368C24.4973 0.119146 23.9163 0 23.3292 0C22.7422 0 22.1611 0.119146 21.6205 0.350368C21.0799 0.581591 20.5908 0.920179 20.1822 1.34604L12.4404 9.16891L23.2873 14.6386L34.197 9.16891Z" fill="white"/>
</svg>
