<svg width="113" height="40" viewBox="0 0 113 40" fill="none" xmlns="http://www.w3.org/2000/svg">
<path d="M61.8 12.4807L58.8092 14.7611L57.3647 19.9107L59.0387 22.2804H63.8849L62.8995 25.8398H58.8966L59.3673 24.148H56.1872L55.5122 26.6304L57.2324 28.9785H62.8555L65.8587 26.6619L67.2874 21.4651L65.5978 19.1157H60.7584L61.7357 15.6008H65.7176L65.2425 17.3109H68.4335L69.1557 14.7611L67.4946 12.4807H61.8Z" fill="white"/>
<path d="M73.9488 12.4807L70.946 14.7611L67.6489 26.6462L69.381 28.9785H75.0043L78.0112 26.6462L78.9375 23.2895H75.7587L75.0524 25.8398H71.0576L73.9082 15.5825H77.8923L77.1761 18.1691H80.3504L81.3083 14.7611L79.6675 12.4807H73.9488Z" fill="white"/>
<path d="M95.9245 12.4807L91.3403 28.9785H94.5177L95.8862 24.037H98.4723L99.0648 28.9785H102.171L101.491 23.356L103.728 21.5436L105.612 14.7611L103.943 12.4807H95.9245ZM98.2266 15.5825H102.209L100.728 20.9161H96.7499L98.2266 15.5825Z" fill="white"/>
<path d="M42.2962 12.4807L39.7192 21.7948L38.1884 12.4807H35.0395L30.4561 28.9785H33.6366L36.2572 19.6282L37.8116 28.9785H40.9124L45.4803 12.4807H42.2962Z" fill="white"/>
<path d="M49.6317 12.4807L46.6661 14.7454L42.7095 28.9785H45.8859L47.2541 24.0398H51.2579L49.8898 28.9785H53.056L57.0126 14.7611L55.3464 12.4807H49.6317ZM49.595 15.5825H53.5987L52.1242 20.9113H48.1205L49.595 15.5825Z" fill="white"/>
<path d="M86.0777 12.4807L83.0973 14.7611L79.1567 28.9785H82.3321L83.6999 24.0398H87.7038L86.3358 28.9785H89.5189L93.4598 14.7454L91.7923 12.4807H86.0777ZM86.041 15.5825H90.0449L88.5702 20.9113H84.5665L86.041 15.5825Z" fill="white"/>
<path d="M26.9671 12.4836L22.3828 28.9814H28.7247L33.293 12.4836H26.9671Z" fill="white"/>
<path d="M17.8731 12.4881L13.2842 29H16.3448L20.9167 12.4881H17.8731Z" fill="white"/>
<path d="M22.1665 12.4881L17.5776 29H20.6382L25.2101 12.4881H22.1665Z" fill="white"/>
<path d="M11.128 12.4881L6.53906 29H8.44024L13.0122 12.4881H11.128Z" fill="white"/>
<path d="M14.2511 12.4881L9.66211 29H11.5634L16.1352 12.4881H14.2511Z" fill="white"/>
</svg>
