<svg width="142" height="25" viewBox="0 0 142 25" fill="none" xmlns="http://www.w3.org/2000/svg">
<g clip-path="url(#clip0_412_12685)">
<path d="M79.2283 0.758986L74.9768 4.00063L72.9234 11.3209L75.3031 14.6895H82.192L80.7913 19.7492H75.101L75.7701 17.3443H71.2496L70.29 20.8731L72.7354 24.2109H80.7287L84.9978 20.9178L87.0287 13.5304L84.6268 10.1908H77.7476L79.1369 5.19432H84.7972L84.1218 7.62524H88.6578L89.6846 4.00063L87.3233 0.758986H79.2283Z" fill="#E8EDFF"/>
<path d="M96.4984 0.758986L92.2298 4.00063L87.543 20.8956L90.0052 24.2109H97.9987L102.273 20.8956L103.59 16.1239H99.0712L98.0672 19.7492H92.3884L96.4406 5.16829H102.104L101.086 8.8452H105.598L106.96 4.00063L104.628 0.758986H96.4984Z" fill="#E8EDFF"/>
<path d="M127.737 0.758986L121.221 24.2109H125.737L127.683 17.1865H131.359L132.201 24.2109H136.617L135.649 16.2184L138.83 13.6421L141.508 4.00063L139.135 0.758986H127.737ZM131.01 5.16829H136.671L134.565 12.7501H128.911L131.01 5.16829Z" fill="#E8EDFF"/>
<path d="M51.5028 0.758986L47.8397 13.9991L45.6636 0.758986H41.1873L34.6719 24.2109H39.1931L42.9183 10.9193L45.1279 24.2109H49.5357L56.0292 0.758986H51.5028Z" fill="#E8EDFF"/>
<path d="M61.9309 0.758986L57.7152 3.97828L52.0908 24.2109H56.6062L58.5511 17.1905H64.2426L62.2977 24.2109H66.7985L72.4229 4.00063L70.0545 0.758986H61.9309ZM61.8788 5.16829H67.5701L65.474 12.7433H59.7827L61.8788 5.16829Z" fill="#E8EDFF"/>
<path d="M113.74 0.758986L109.503 4.00063L103.901 24.2109H108.415L110.36 17.1905H116.051L114.106 24.2109H118.631L124.233 3.97828L121.863 0.758986H113.74ZM113.688 5.16829H119.379L117.283 12.7433H111.591L113.688 5.16829Z" fill="#E8EDFF"/>
<path d="M29.7129 0.762878L23.1963 24.2148H32.2114L38.7054 0.762878H29.7129Z" fill="#E8EDFF"/>
<path d="M16.7849 0.769302L10.2617 24.2412H14.6124L21.1115 0.769302H16.7849Z" fill="#E8EDFF"/>
<path d="M22.8884 0.769302L16.3652 24.2412H20.7159L27.2149 0.769302H22.8884Z" fill="#E8EDFF"/>
<path d="M7.19702 0.769302L0.673828 24.2412H3.37639L9.87551 0.769302H7.19702Z" fill="#E8EDFF"/>
<path d="M11.6366 0.769302L5.11328 24.2412H7.81604L14.315 0.769302H11.6366Z" fill="#E8EDFF"/>
</g>
<defs>
<clipPath id="clip0_412_12685">
<rect width="140.834" height="23.4825" fill="white" transform="translate(0.673828 0.758789)"/>
</clipPath>
</defs>
</svg>
