<svg width="168" height="40" viewBox="0 0 168 40" fill="none" xmlns="http://www.w3.org/2000/svg">
<path fill-rule="evenodd" clip-rule="evenodd" d="M70.5555 3.68826C70.5555 1.81755 69.2509 0.298828 67.6441 0.298828H58.4349C56.828 0.298828 55.5234 1.81755 55.5234 3.68826V36.3111C55.5234 38.1818 56.828 39.7006 58.4349 39.7006H67.6441C69.2509 39.7006 70.5555 38.1818 70.5555 36.3111V3.68826Z" fill="white"/>
<path fill-rule="evenodd" clip-rule="evenodd" d="M65.4003 1.42318C64.9093 1.42329 64.5494 1.42559 64.5272 1.42898L64.4731 1.43752L64.5909 1.49651C64.7459 1.57389 64.9176 1.69352 65.0091 1.78776C65.0497 1.82957 65.1155 1.92063 65.1556 1.99035C65.2112 2.08721 65.2398 2.12147 65.2774 2.13657C65.397 2.18451 65.4868 2.29549 65.5667 2.49436C65.628 2.64694 65.6505 2.79469 65.6507 3.04763C65.6511 3.3982 65.5822 3.71374 65.4177 4.11345L65.3428 4.29525L65.3968 4.36661C65.5112 4.51787 65.4876 4.65676 65.2834 5.03655C65.235 5.12651 65.1804 5.23421 65.1622 5.27569C65.1074 5.39959 65.056 5.45782 64.9725 5.49065L64.8965 5.52064L64.7977 5.74096C64.558 6.2753 64.3767 6.55954 64.2229 6.64239C64.194 6.65793 64.1629 6.68168 64.1538 6.69525C64.1265 6.73586 64.1038 6.84465 64.1044 6.93189C64.1054 7.08577 64.1142 7.09595 64.3697 7.24174C64.6313 7.39103 64.8289 7.52532 64.9551 7.63959C65.0352 7.71215 65.0416 7.72288 65.0416 7.78351C65.0416 7.83736 65.0487 7.85411 65.0806 7.87709C65.1931 7.95797 65.2856 8.03021 65.3758 8.10748C65.431 8.15487 65.5617 8.25995 65.6663 8.34083C65.9093 8.52908 66.0389 8.65123 66.1898 8.83357C66.6637 9.40665 66.9245 10.2462 66.9963 11.4293C67.0042 11.5608 67.0108 11.8706 67.0109 12.1176L67.011 12.5667L67.0599 12.7939C67.1101 13.0275 67.1613 13.3369 67.238 13.8705C67.2908 14.2381 67.3422 14.5258 67.3815 14.6753C67.3975 14.7362 67.4873 14.9678 67.581 15.19C67.7991 15.7066 67.8722 15.9034 67.9586 16.2045C68.0283 16.4471 68.0857 16.7415 68.1079 16.9714C68.1641 17.5506 68.2463 18.0122 68.3068 18.0893C68.3161 18.1009 68.3963 18.1327 68.4855 18.1599C68.5746 18.1869 68.6871 18.2309 68.7355 18.2572C68.8187 18.3025 68.8264 18.3116 68.8702 18.4176L68.9166 18.53L69.0795 18.6258C69.1692 18.6784 69.2605 18.7415 69.2828 18.7659C69.335 18.8235 69.3739 18.9129 69.3859 19.0026C69.3911 19.0419 69.4152 19.1077 69.4393 19.1484C69.5356 19.3113 69.6787 19.6225 69.6923 19.6979C69.6942 19.7086 69.6975 16.2586 69.6996 12.0311C69.7035 3.58153 69.7094 4.18054 69.6184 3.76967C69.5431 3.4295 69.4149 3.09918 69.2435 2.80367C68.8247 2.08185 68.1865 1.61132 67.4149 1.4558C67.2882 1.43018 67.1312 1.4269 65.9273 1.42373C65.7422 1.42329 65.5641 1.42307 65.4005 1.42307L65.4004 1.42285L65.4003 1.42318ZM65.1963 11.8746C65.1257 11.8746 64.6207 12.2274 64.3246 12.4833C64.2106 12.5819 64.1936 12.6038 64.1473 12.7128C64.0757 12.8807 63.805 13.6705 63.5213 14.5384L63.3919 14.9343L63.3867 15.1198C63.3819 15.2911 63.3835 15.3054 63.4076 15.3057C63.4476 15.3059 63.568 15.393 63.6401 15.4739C63.7823 15.6338 63.8695 15.8355 63.9841 16.2703C64.0745 16.6136 64.2928 17.5021 64.4764 18.2743L64.6623 19.0558L64.7207 19.3013L64.6378 19.3939L64.555 19.4865L64.588 19.6268L64.6618 19.9402C64.9259 21.0626 65.0483 21.8793 65.1696 23.3298C65.2275 24.0219 65.271 24.2619 65.4095 24.65C65.5434 25.0254 65.6883 25.3585 65.8712 25.7121C66.1313 26.2149 66.279 26.5744 66.3616 26.9061C66.4439 27.2364 66.5494 27.8565 66.6709 28.7233C66.8302 29.8592 66.8863 30.2387 66.9104 30.3458C66.9329 30.4455 66.9567 30.4942 67.0703 30.6736C67.2641 30.9795 67.3095 31.0606 67.4051 31.2717C67.5607 31.6155 67.6001 31.8227 67.5582 32.0799C67.5457 32.1571 67.5097 32.3426 67.4783 32.4923C67.3282 33.2063 67.3001 33.5475 67.3641 33.8796C67.372 33.9206 67.4043 34.137 67.4359 34.3606C67.4996 34.8111 67.5408 35.0003 67.5958 35.0938C67.6441 35.176 67.6912 35.3436 67.691 35.432C67.6908 35.4707 67.6781 35.5349 67.6627 35.5745C67.6472 35.6141 67.6345 35.6578 67.6345 35.6716C67.6345 35.6856 67.698 35.9205 67.7756 36.1934C67.8532 36.4666 67.9328 36.7569 67.9525 36.8386C68.109 37.4865 68.1057 38.0116 67.9429 38.389C67.831 38.6482 67.6932 38.8219 67.4417 39.0204C67.4191 39.0384 67.4255 39.0399 67.4859 39.0316C67.58 39.0183 67.7549 38.9668 67.9075 38.9069C68.3019 38.7524 68.6973 38.4503 68.9956 38.0755C69.3779 37.5954 69.6268 36.957 69.6883 36.299C69.6985 36.1891 69.7031 33.8856 69.703 28.9589L69.703 21.7792L69.6577 21.8946C69.5995 22.0427 69.4613 22.3135 69.3827 22.4329C69.1569 22.7761 68.8465 23.0686 68.5097 23.2554C67.7171 23.6952 66.7946 23.6027 66.0762 23.0116C65.9042 22.8701 65.6428 22.5657 65.5205 22.3646C65.021 21.543 64.9364 20.4783 65.2983 19.564C65.5709 18.8749 66.1158 18.3138 66.7279 18.092C66.8096 18.0624 66.8822 18.0324 66.8892 18.0253C66.9054 18.0086 66.8716 17.9109 66.6842 17.433C66.5352 17.0519 66.3388 16.5792 66.0165 15.8237C65.84 15.4096 65.8137 15.3202 65.7091 14.7774C65.6093 14.2582 65.4436 13.2673 65.297 12.3113C65.2273 11.8577 65.2312 11.8743 65.1966 11.8743L65.1965 11.8745L65.1963 11.8746Z" fill="#1F47D7"/>
<path fill-rule="evenodd" clip-rule="evenodd" d="M61.2583 1.416C60.1087 1.41666 58.9382 1.42257 58.8417 1.43275C58.1997 1.5005 57.6491 1.78999 57.1956 2.29817C56.7576 2.78938 56.5036 3.35381 56.3902 4.08821C56.3677 4.23455 56.3658 5.24553 56.3614 20.0138C56.3581 30.7267 56.3613 35.8801 56.3712 36.0873C56.4111 36.92 56.6624 37.5816 57.1575 38.1582C57.6246 38.7023 58.2123 39.0172 58.8628 39.0719C59.0557 39.0881 66.9981 39.0927 66.9976 39.0765C66.9974 39.0699 66.9585 39.0348 66.9112 38.9985C66.7325 38.8611 66.5896 38.6336 66.5372 38.4026C66.4737 38.1221 66.4773 37.8041 66.552 37.0852C66.6175 36.4559 66.6574 35.9561 66.667 35.6493L66.6764 35.3466L66.5998 35.2501C66.4373 35.0454 66.4046 34.8936 66.4789 34.6898C66.4994 34.6334 66.5162 34.5694 66.5162 34.5476C66.5162 34.4875 66.4406 34.2041 66.3703 34.0006C66.2882 33.7634 66.1658 33.4804 65.9763 33.0904C65.7044 32.5308 65.6491 32.38 65.6476 32.1944C65.6467 32.0775 65.6662 32.0186 65.737 31.9247L65.779 31.8691L65.7383 31.7307C65.6847 31.5476 65.6292 31.3879 65.5169 31.0931L65.4241 30.8494L65.2953 30.7604C64.776 30.4009 64.145 29.845 63.5274 29.2001C63.3443 29.0088 63.018 28.6426 62.7475 28.3258C62.5799 28.1292 62.3218 27.8441 62.1736 27.6925C61.9096 27.4222 61.8102 27.3031 61.7657 27.2043C61.7534 27.1771 61.7067 27.1067 61.662 27.0477C61.0865 26.2888 59.7924 24.0669 59.3601 23.0955C59.3122 22.9876 59.2715 22.8974 59.2698 22.8953C59.2682 22.8931 59.1151 22.8658 58.9297 22.8347C58.7443 22.8035 58.5879 22.772 58.5822 22.7646C58.5764 22.7571 58.5484 22.6593 58.5198 22.5473C58.4075 22.107 58.2637 21.737 57.8529 20.8293C57.2666 19.5345 57.1143 18.8817 57.2005 18.0334C57.2557 17.4893 57.4111 16.6336 57.4899 16.4401C57.5373 16.3235 57.6471 16.1661 57.8156 15.9734L57.9726 15.7933V15.3923L57.5935 15.3918C57.0915 15.3913 56.9476 15.3663 56.8422 15.2614C56.7787 15.198 56.7668 15.1636 56.711 14.8772C56.6944 14.7926 56.6585 14.6591 56.6311 14.5803C56.5204 14.2631 56.5136 14.1399 56.5903 13.8577C56.6172 13.7593 56.6494 13.631 56.6621 13.5728C56.7759 13.0517 57.0632 12.2611 57.6185 10.9406C57.7138 10.7137 57.8129 10.4576 57.8385 10.3715C58.0082 9.80071 58.169 9.34825 58.3365 8.96955C58.7073 8.1315 58.9917 7.63153 59.2849 7.30286C59.4353 7.13419 59.5472 7.04324 59.7205 6.94846C59.9552 6.82007 60.1296 6.77914 60.6996 6.71829L61.082 6.67735L61.1248 6.62099L61.1676 6.56451L61.3517 6.55422C61.9619 6.52029 62.1818 6.43087 62.286 6.17432C62.3377 6.04714 62.3602 5.91011 62.4148 5.39285C62.4421 5.13291 62.466 4.90909 62.4678 4.8954C62.4697 4.88019 62.4617 4.87253 62.4466 4.87548C62.3169 4.90066 62.2076 4.56454 62.2037 4.12849C62.2006 3.77486 62.2451 3.69485 62.4549 3.67668L62.5702 3.6664L62.5734 3.54272C62.5801 3.27325 62.609 2.88164 62.6351 2.70236C62.6953 2.2904 62.7753 2.08846 62.9659 1.86847C63.1046 1.70823 63.2445 1.60163 63.4504 1.49951C63.5221 1.46383 63.5615 1.43614 63.5511 1.4287C63.537 1.41852 62.408 1.41436 61.2582 1.41513L61.2584 1.41578L61.2583 1.416ZM58.0576 31.4198H58.9614L58.9838 31.5642C58.996 31.6436 59.0385 31.9163 59.0781 32.1703C59.1177 32.4244 59.1752 32.7955 59.2059 32.995C59.2367 33.1947 59.3191 33.7253 59.3894 34.1744C59.4594 34.6234 59.5498 35.2043 59.5901 35.4651C59.6303 35.726 59.6657 35.9365 59.6687 35.933C59.6732 35.9278 59.652 35.4945 59.6235 35.0074C59.613 34.8288 59.6037 34.6456 59.5947 34.4382C59.5902 34.334 59.5838 34.204 59.5808 34.1496C59.5776 34.0951 59.5712 33.9133 59.5664 33.7454C59.5618 33.5777 59.555 33.4033 59.5517 33.3579C59.5483 33.3124 59.5418 32.8579 59.5369 32.3475L59.5281 31.4197H60.112V37.1102H59.2826L59.214 36.6771C59.1763 36.4391 59.0987 35.9511 59.0414 35.5927C58.9843 35.2343 58.8954 34.674 58.844 34.3474C58.7097 33.4962 58.6417 33.0725 58.6026 32.8464L58.5683 32.6484L58.575 32.8051C58.5787 32.8913 58.5881 33.1809 58.5959 33.4485C58.6037 33.7161 58.6132 34.0241 58.617 34.133C58.622 34.2746 58.6284 36.7298 58.6247 37.0813C58.6245 37.1078 58.6013 37.1102 58.341 37.1102H58.0577V31.4197L58.0576 31.4198ZM60.5653 31.4198L61.086 31.42C61.3724 31.42 61.6482 31.4275 61.6988 31.4366C62.005 31.4918 62.2225 31.6911 62.3209 32.0068C62.3887 32.2241 62.3958 32.3339 62.3897 33.0692C62.3849 33.6376 62.3805 33.7521 62.3598 33.8364C62.3194 34.0012 62.2657 34.111 62.1745 34.216L62.0881 34.315L62.167 34.4055C62.2591 34.5112 62.3107 34.6127 62.3545 34.7751C62.3849 34.8882 62.386 34.9142 62.386 35.5847C62.386 36.3594 62.3848 36.3727 62.2825 36.6156C62.1878 36.8409 62.023 36.9935 61.7898 37.0716C61.7187 37.0955 61.6192 37.1009 61.1356 37.1066L60.5653 37.1148V31.4202V31.4198ZM63.1876 31.4198H64.119L64.1273 31.4817C64.1318 31.5156 64.1708 31.8998 64.214 32.3352C64.2572 32.7707 64.3463 33.6651 64.4122 34.3228C64.665 36.8496 64.6883 37.0839 64.6883 37.0971C64.6883 37.1037 64.5355 37.1103 64.3488 37.1103H64.0094L64.0021 37.0567C63.9981 37.0272 63.9819 36.8101 63.9662 36.5743C63.9503 36.3383 63.9336 36.1026 63.9289 36.0505L63.9204 35.9557H63.6316C63.3434 35.9557 63.3428 35.9558 63.3362 35.9928C63.3325 36.0132 63.3162 36.2303 63.2997 36.4752C63.2833 36.7203 63.266 36.9634 63.2615 37.0154L63.2533 37.1103H62.6055V37.061C62.6055 37.0204 62.7024 36.0638 62.7968 35.1721C62.8084 35.0632 62.8911 34.2616 62.9808 33.3908C63.1664 31.5884 63.1706 31.5461 63.1805 31.4733L63.1876 31.4196V31.4197V31.4198ZM63.6131 32.0585L63.6064 32.0642C63.6032 32.0681 63.5968 32.1382 63.5919 32.2197C63.587 32.3013 63.5798 32.4165 63.5757 32.4755C63.5717 32.5345 63.5492 32.8796 63.526 33.2424C63.5027 33.6053 63.4608 34.2085 63.4328 34.5829C63.4049 34.9573 63.3851 35.2727 63.3888 35.284C63.3937 35.2988 63.4576 35.3041 63.6298 35.3041C63.7587 35.3041 63.8678 35.2998 63.8724 35.2945C63.877 35.2892 63.8618 35.0369 63.8386 34.7338C63.6528 32.301 63.6341 32.0583 63.6132 32.0584L63.6131 32.0585ZM61.2171 32.1426V33.0731C61.2171 33.5849 61.2197 34.0066 61.223 34.0104C61.2263 34.0141 61.3075 34.0147 61.4037 34.0116C61.6047 34.005 61.6541 33.9859 61.7022 33.8959L61.7343 33.8365V33.086C61.7343 32.365 61.7331 32.3333 61.706 32.2795C61.6496 32.1679 61.6193 32.1546 61.4074 32.1487L61.2171 32.1421L61.2172 32.1426H61.2171ZM61.2171 34.6319V36.3843H61.3842C61.5863 36.3843 61.6566 36.3534 61.705 36.2439C61.7331 36.1805 61.7342 36.152 61.7342 35.5017C61.7342 34.8523 61.7331 34.8231 61.7055 34.7677C61.6588 34.674 61.5918 34.6464 61.3907 34.6386L61.2171 34.6336V34.6317V34.6319Z" fill="#253D92"/>
<path d="M105.007 13.4541V26.545H102.616L96.9208 18.3057H96.8249V26.545H94.0571V13.4541H96.4861L102.137 21.6871H102.252V13.4541H105.007Z" fill="#E8EDFF"/>
<path d="M107.473 26.545V13.4541H112.715C113.678 13.4541 114.481 13.5969 115.125 13.8824C115.768 14.1679 116.252 14.5642 116.576 15.0713C116.9 15.5741 117.062 16.1537 117.062 16.8099C117.062 17.3213 116.959 17.7709 116.755 18.1586C116.55 18.5422 116.269 18.8575 115.911 19.1047C115.557 19.3476 115.152 19.5202 114.696 19.6224V19.7503C115.195 19.7716 115.662 19.9122 116.096 20.1721C116.535 20.4321 116.891 20.7964 117.164 21.2652C117.437 21.7297 117.573 22.2836 117.573 22.9271C117.573 23.6217 117.4 24.2417 117.055 24.7872C116.714 25.3284 116.209 25.7567 115.54 26.072C114.871 26.3873 114.047 26.545 113.066 26.545H107.473ZM110.241 24.2822H112.498C113.269 24.2822 113.831 24.1352 114.185 23.8412C114.539 23.5429 114.716 23.1466 114.716 22.6523C114.716 22.29 114.628 21.9704 114.454 21.6934C114.279 21.4165 114.03 21.1991 113.706 21.0415C113.386 20.8838 113.005 20.805 112.562 20.805H110.241V24.2822ZM110.241 18.9321H112.293C112.672 18.9321 113.009 18.866 113.303 18.7339C113.601 18.5976 113.836 18.4058 114.006 18.1586C114.181 17.9115 114.268 17.6153 114.268 17.2702C114.268 16.7971 114.1 16.4157 113.763 16.126C113.431 15.8362 112.958 15.6913 112.344 15.6913H110.241V18.9321Z" fill="#E8EDFF"/>
<path d="M121.81 26.545H118.844L123.364 13.4541H126.93L131.443 26.545H128.477L125.198 16.4456H125.096L121.81 26.545ZM121.625 21.3994H128.631V23.5599H121.625V21.3994Z" fill="#E8EDFF"/>
</svg>
