<svg width="101" height="40" viewBox="0 0 101 40" fill="none" xmlns="http://www.w3.org/2000/svg">
<path fill-rule="evenodd" clip-rule="evenodd" d="M36.5555 3.68826C36.5555 1.81755 35.2509 0.298828 33.6441 0.298828H24.4349C22.828 0.298828 21.5234 1.81755 21.5234 3.68826V36.3111C21.5234 38.1818 22.828 39.7006 24.4349 39.7006H33.6441C35.2509 39.7006 36.5555 38.1818 36.5555 36.3111V3.68826Z" fill="white"/>
<path fill-rule="evenodd" clip-rule="evenodd" d="M31.4003 1.42318C30.9093 1.42329 30.5494 1.42559 30.5272 1.42898L30.4731 1.43752L30.5909 1.49651C30.7459 1.57389 30.9176 1.69352 31.0091 1.78776C31.0497 1.82957 31.1155 1.92063 31.1556 1.99035C31.2112 2.08721 31.2398 2.12147 31.2774 2.13657C31.397 2.18451 31.4868 2.29549 31.5667 2.49436C31.628 2.64694 31.6505 2.79469 31.6507 3.04763C31.6511 3.3982 31.5822 3.71374 31.4177 4.11345L31.3428 4.29525L31.3968 4.36661C31.5112 4.51787 31.4876 4.65676 31.2834 5.03655C31.235 5.12651 31.1804 5.23421 31.1622 5.27569C31.1074 5.39959 31.056 5.45782 30.9725 5.49065L30.8965 5.52064L30.7977 5.74096C30.558 6.2753 30.3767 6.55954 30.2229 6.64239C30.194 6.65793 30.1629 6.68168 30.1538 6.69525C30.1265 6.73586 30.1038 6.84465 30.1044 6.93189C30.1054 7.08577 30.1142 7.09595 30.3697 7.24174C30.6313 7.39103 30.8289 7.52532 30.9551 7.63959C31.0352 7.71215 31.0416 7.72288 31.0416 7.78351C31.0416 7.83736 31.0487 7.85411 31.0806 7.87709C31.1931 7.95797 31.2856 8.03021 31.3758 8.10748C31.431 8.15487 31.5617 8.25995 31.6663 8.34083C31.9093 8.52908 32.0389 8.65123 32.1898 8.83357C32.6637 9.40665 32.9245 10.2462 32.9963 11.4293C33.0042 11.5608 33.0108 11.8706 33.0109 12.1176L33.011 12.5667L33.0599 12.7939C33.1101 13.0275 33.1613 13.3369 33.238 13.8705C33.2908 14.2381 33.3422 14.5258 33.3815 14.6753C33.3975 14.7362 33.4873 14.9678 33.581 15.19C33.7991 15.7066 33.8722 15.9034 33.9586 16.2045C34.0283 16.4471 34.0857 16.7415 34.1079 16.9714C34.1641 17.5506 34.2463 18.0122 34.3068 18.0893C34.3161 18.1009 34.3963 18.1327 34.4855 18.1599C34.5746 18.1869 34.6871 18.2309 34.7355 18.2572C34.8187 18.3025 34.8264 18.3116 34.8702 18.4176L34.9166 18.53L35.0795 18.6258C35.1692 18.6784 35.2605 18.7415 35.2828 18.7659C35.335 18.8235 35.3739 18.9129 35.3859 19.0026C35.3911 19.0419 35.4152 19.1077 35.4393 19.1484C35.5356 19.3113 35.6787 19.6225 35.6923 19.6979C35.6942 19.7086 35.6975 16.2586 35.6996 12.0311C35.7035 3.58153 35.7094 4.18054 35.6184 3.76967C35.5431 3.4295 35.4149 3.09918 35.2435 2.80367C34.8247 2.08185 34.1865 1.61132 33.4149 1.4558C33.2882 1.43018 33.1312 1.4269 31.9273 1.42373C31.7422 1.42329 31.5641 1.42307 31.4005 1.42307L31.4004 1.42285L31.4003 1.42318ZM31.1963 11.8746C31.1257 11.8746 30.6207 12.2274 30.3246 12.4833C30.2106 12.5819 30.1936 12.6038 30.1473 12.7128C30.0757 12.8807 29.805 13.6705 29.5213 14.5384L29.3919 14.9343L29.3867 15.1198C29.3819 15.2911 29.3835 15.3054 29.4076 15.3057C29.4476 15.3059 29.568 15.393 29.6401 15.4739C29.7823 15.6338 29.8695 15.8355 29.9841 16.2703C30.0745 16.6136 30.2928 17.5021 30.4764 18.2743L30.6623 19.0558L30.7207 19.3013L30.6378 19.3939L30.555 19.4865L30.588 19.6268L30.6618 19.9402C30.9259 21.0626 31.0483 21.8793 31.1696 23.3298C31.2275 24.0219 31.271 24.2619 31.4095 24.65C31.5434 25.0254 31.6883 25.3585 31.8712 25.7121C32.1313 26.2149 32.279 26.5744 32.3616 26.9061C32.4439 27.2364 32.5494 27.8565 32.6709 28.7233C32.8302 29.8592 32.8863 30.2387 32.9104 30.3458C32.9329 30.4455 32.9567 30.4942 33.0703 30.6736C33.2641 30.9795 33.3095 31.0606 33.4051 31.2717C33.5607 31.6155 33.6001 31.8227 33.5582 32.0799C33.5457 32.1571 33.5097 32.3426 33.4783 32.4923C33.3282 33.2063 33.3001 33.5475 33.3641 33.8796C33.372 33.9206 33.4043 34.137 33.4359 34.3606C33.4996 34.8111 33.5408 35.0003 33.5958 35.0938C33.6441 35.176 33.6912 35.3436 33.691 35.432C33.6908 35.4707 33.6781 35.5349 33.6627 35.5745C33.6472 35.6141 33.6345 35.6578 33.6345 35.6716C33.6345 35.6856 33.698 35.9205 33.7756 36.1934C33.8532 36.4666 33.9328 36.7569 33.9525 36.8386C34.109 37.4865 34.1057 38.0116 33.9429 38.389C33.831 38.6482 33.6932 38.8219 33.4417 39.0204C33.4191 39.0384 33.4255 39.0399 33.4859 39.0316C33.58 39.0183 33.7549 38.9668 33.9075 38.9069C34.3019 38.7524 34.6973 38.4503 34.9956 38.0755C35.3779 37.5954 35.6268 36.957 35.6883 36.299C35.6985 36.1891 35.7031 33.8856 35.703 28.9589L35.703 21.7792L35.6577 21.8946C35.5995 22.0427 35.4613 22.3135 35.3827 22.4329C35.1569 22.7761 34.8465 23.0686 34.5097 23.2554C33.7171 23.6952 32.7946 23.6027 32.0762 23.0116C31.9042 22.8701 31.6428 22.5657 31.5205 22.3646C31.021 21.543 30.9364 20.4783 31.2983 19.564C31.5709 18.8749 32.1158 18.3138 32.7279 18.092C32.8096 18.0624 32.8822 18.0324 32.8892 18.0253C32.9054 18.0086 32.8716 17.9109 32.6842 17.433C32.5352 17.0519 32.3388 16.5792 32.0165 15.8237C31.84 15.4096 31.8137 15.3202 31.7091 14.7774C31.6093 14.2582 31.4436 13.2673 31.297 12.3113C31.2273 11.8577 31.2312 11.8743 31.1966 11.8743L31.1965 11.8745L31.1963 11.8746Z" fill="#1F47D7"/>
<path fill-rule="evenodd" clip-rule="evenodd" d="M27.2583 1.416C26.1087 1.41666 24.9382 1.42257 24.8417 1.43275C24.1997 1.5005 23.6491 1.78999 23.1956 2.29817C22.7576 2.78938 22.5036 3.35381 22.3902 4.08821C22.3677 4.23455 22.3658 5.24553 22.3614 20.0138C22.3581 30.7267 22.3613 35.8801 22.3712 36.0873C22.4111 36.92 22.6624 37.5816 23.1575 38.1582C23.6246 38.7023 24.2123 39.0172 24.8628 39.0719C25.0557 39.0881 32.9981 39.0927 32.9976 39.0765C32.9974 39.0699 32.9585 39.0348 32.9112 38.9985C32.7325 38.8611 32.5896 38.6336 32.5372 38.4026C32.4737 38.1221 32.4773 37.8041 32.552 37.0852C32.6175 36.4559 32.6574 35.9561 32.667 35.6493L32.6764 35.3466L32.5998 35.2501C32.4373 35.0454 32.4046 34.8936 32.4789 34.6898C32.4994 34.6334 32.5162 34.5694 32.5162 34.5476C32.5162 34.4875 32.4406 34.2041 32.3703 34.0006C32.2882 33.7634 32.1658 33.4804 31.9763 33.0904C31.7044 32.5308 31.6491 32.38 31.6476 32.1944C31.6467 32.0775 31.6662 32.0186 31.737 31.9247L31.779 31.8691L31.7383 31.7307C31.6847 31.5476 31.6292 31.3879 31.5169 31.0931L31.4241 30.8494L31.2953 30.7604C30.776 30.4009 30.145 29.845 29.5274 29.2001C29.3443 29.0088 29.018 28.6426 28.7475 28.3258C28.5799 28.1292 28.3218 27.8441 28.1736 27.6925C27.9096 27.4222 27.8102 27.3031 27.7657 27.2043C27.7534 27.1771 27.7067 27.1067 27.662 27.0477C27.0865 26.2888 25.7924 24.0669 25.3601 23.0955C25.3122 22.9876 25.2715 22.8974 25.2698 22.8953C25.2682 22.8931 25.1151 22.8658 24.9297 22.8347C24.7443 22.8035 24.5879 22.772 24.5822 22.7646C24.5764 22.7571 24.5484 22.6593 24.5198 22.5473C24.4075 22.107 24.2637 21.737 23.8529 20.8293C23.2666 19.5345 23.1143 18.8817 23.2005 18.0334C23.2557 17.4893 23.4111 16.6336 23.4899 16.4401C23.5373 16.3235 23.6471 16.1661 23.8156 15.9734L23.9726 15.7933V15.3923L23.5935 15.3918C23.0915 15.3913 22.9476 15.3663 22.8422 15.2614C22.7787 15.198 22.7668 15.1636 22.711 14.8772C22.6944 14.7926 22.6585 14.6591 22.6311 14.5803C22.5204 14.2631 22.5136 14.1399 22.5903 13.8577C22.6172 13.7593 22.6494 13.631 22.6621 13.5728C22.7759 13.0517 23.0632 12.2611 23.6185 10.9406C23.7138 10.7137 23.8129 10.4576 23.8385 10.3715C24.0082 9.80071 24.169 9.34825 24.3365 8.96955C24.7073 8.1315 24.9917 7.63153 25.2849 7.30286C25.4353 7.13419 25.5472 7.04324 25.7205 6.94846C25.9552 6.82007 26.1296 6.77914 26.6996 6.71829L27.082 6.67735L27.1248 6.62099L27.1676 6.56451L27.3517 6.55422C27.9619 6.52029 28.1818 6.43087 28.286 6.17432C28.3377 6.04714 28.3602 5.91011 28.4148 5.39285C28.4421 5.13291 28.466 4.90909 28.4678 4.8954C28.4697 4.88019 28.4617 4.87253 28.4466 4.87548C28.3169 4.90066 28.2076 4.56454 28.2037 4.12849C28.2006 3.77486 28.2451 3.69485 28.4549 3.67668L28.5702 3.6664L28.5734 3.54272C28.5801 3.27325 28.609 2.88164 28.6351 2.70236C28.6953 2.2904 28.7753 2.08846 28.9659 1.86847C29.1046 1.70823 29.2445 1.60163 29.4504 1.49951C29.5221 1.46383 29.5615 1.43614 29.5511 1.4287C29.537 1.41852 28.408 1.41436 27.2582 1.41513L27.2584 1.41578L27.2583 1.416ZM24.0576 31.4198H24.9614L24.9838 31.5642C24.996 31.6436 25.0385 31.9163 25.0781 32.1703C25.1177 32.4244 25.1752 32.7955 25.2059 32.995C25.2367 33.1947 25.3191 33.7253 25.3894 34.1744C25.4594 34.6234 25.5498 35.2043 25.5901 35.4651C25.6303 35.726 25.6657 35.9365 25.6687 35.933C25.6732 35.9278 25.652 35.4945 25.6235 35.0074C25.613 34.8288 25.6037 34.6456 25.5947 34.4382C25.5902 34.334 25.5838 34.204 25.5808 34.1496C25.5776 34.0951 25.5712 33.9133 25.5664 33.7454C25.5618 33.5777 25.555 33.4033 25.5517 33.3579C25.5483 33.3124 25.5418 32.8579 25.5369 32.3475L25.5281 31.4197H26.112V37.1102H25.2826L25.214 36.6771C25.1763 36.4391 25.0987 35.9511 25.0414 35.5927C24.9843 35.2343 24.8954 34.674 24.844 34.3474C24.7097 33.4962 24.6417 33.0725 24.6026 32.8464L24.5683 32.6484L24.575 32.8051C24.5787 32.8913 24.5881 33.1809 24.5959 33.4485C24.6037 33.7161 24.6132 34.0241 24.617 34.133C24.622 34.2746 24.6284 36.7298 24.6247 37.0813C24.6245 37.1078 24.6013 37.1102 24.341 37.1102H24.0577V31.4197L24.0576 31.4198ZM26.5653 31.4198L27.086 31.42C27.3724 31.42 27.6482 31.4275 27.6988 31.4366C28.005 31.4918 28.2225 31.6911 28.3209 32.0068C28.3887 32.2241 28.3958 32.3339 28.3897 33.0692C28.3849 33.6376 28.3805 33.7521 28.3598 33.8364C28.3194 34.0012 28.2657 34.111 28.1745 34.216L28.0881 34.315L28.167 34.4055C28.2591 34.5112 28.3107 34.6127 28.3545 34.7751C28.3849 34.8882 28.386 34.9142 28.386 35.5847C28.386 36.3594 28.3848 36.3727 28.2825 36.6156C28.1878 36.8409 28.023 36.9935 27.7898 37.0716C27.7187 37.0955 27.6192 37.1009 27.1356 37.1066L26.5653 37.1148V31.4202V31.4198ZM29.1876 31.4198H30.119L30.1273 31.4817C30.1318 31.5156 30.1708 31.8998 30.214 32.3352C30.2572 32.7707 30.3463 33.6651 30.4122 34.3228C30.665 36.8496 30.6883 37.0839 30.6883 37.0971C30.6883 37.1037 30.5355 37.1103 30.3488 37.1103H30.0094L30.0021 37.0567C29.9981 37.0272 29.9819 36.8101 29.9662 36.5743C29.9503 36.3383 29.9336 36.1026 29.9289 36.0505L29.9204 35.9557H29.6316C29.3434 35.9557 29.3428 35.9558 29.3362 35.9928C29.3325 36.0132 29.3162 36.2303 29.2997 36.4752C29.2833 36.7203 29.266 36.9634 29.2615 37.0154L29.2533 37.1103H28.6055V37.061C28.6055 37.0204 28.7024 36.0638 28.7968 35.1721C28.8084 35.0632 28.8911 34.2616 28.9808 33.3908C29.1664 31.5884 29.1706 31.5461 29.1805 31.4733L29.1876 31.4196V31.4197V31.4198ZM29.6131 32.0585L29.6064 32.0642C29.6032 32.0681 29.5968 32.1382 29.5919 32.2197C29.587 32.3013 29.5798 32.4165 29.5757 32.4755C29.5717 32.5345 29.5492 32.8796 29.526 33.2424C29.5027 33.6053 29.4608 34.2085 29.4328 34.5829C29.4049 34.9573 29.3851 35.2727 29.3888 35.284C29.3937 35.2988 29.4576 35.3041 29.6298 35.3041C29.7587 35.3041 29.8678 35.2998 29.8724 35.2945C29.877 35.2892 29.8618 35.0369 29.8386 34.7338C29.6528 32.301 29.6341 32.0583 29.6132 32.0584L29.6131 32.0585ZM27.2171 32.1426V33.0731C27.2171 33.5849 27.2197 34.0066 27.223 34.0104C27.2263 34.0141 27.3075 34.0147 27.4037 34.0116C27.6047 34.005 27.6541 33.9859 27.7022 33.8959L27.7343 33.8365V33.086C27.7343 32.365 27.7331 32.3333 27.706 32.2795C27.6496 32.1679 27.6193 32.1546 27.4074 32.1487L27.2171 32.1421L27.2172 32.1426H27.2171ZM27.2171 34.6319V36.3843H27.3842C27.5863 36.3843 27.6566 36.3534 27.705 36.2439C27.7331 36.1805 27.7342 36.152 27.7342 35.5017C27.7342 34.8523 27.7331 34.8231 27.7055 34.7677C27.6588 34.674 27.5918 34.6464 27.3907 34.6386L27.2171 34.6336V34.6317V34.6319Z" fill="#253D92"/>
<path d="M71.0067 13.4541V26.545H68.6161L62.9208 18.3057H62.8249V26.545H60.0571V13.4541H62.4861L68.1367 21.6871H68.2517V13.4541H71.0067Z" fill="#E8EDFF"/>
<path d="M73.4735 26.545V13.4541H78.7149C79.678 13.4541 80.4813 13.5969 81.1247 13.8824C81.7682 14.1679 82.2519 14.5642 82.5757 15.0713C82.8996 15.5741 83.0615 16.1537 83.0615 16.8099C83.0615 17.3213 82.9593 17.7709 82.7547 18.1586C82.5502 18.5422 82.2689 18.8575 81.911 19.1047C81.5573 19.3476 81.1524 19.5202 80.6965 19.6224V19.7503C81.195 19.7716 81.6617 19.9122 82.0963 20.1721C82.5352 20.4321 82.8911 20.7964 83.1638 21.2652C83.4365 21.7297 83.5729 22.2836 83.5729 22.9271C83.5729 23.6217 83.4003 24.2417 83.0551 24.7872C82.7142 25.3284 82.2093 25.7567 81.5402 26.072C80.8712 26.3873 80.0466 26.545 79.0665 26.545H73.4735ZM76.2412 24.2822H78.4976C79.2689 24.2822 79.8314 24.1352 80.1851 23.8412C80.5388 23.5429 80.7156 23.1466 80.7156 22.6523C80.7156 22.29 80.6283 21.9704 80.4536 21.6934C80.2789 21.4165 80.0296 21.1991 79.7057 21.0415C79.3861 20.8838 79.0047 20.805 78.5615 20.805H76.2412V24.2822ZM76.2412 18.9321H78.2931C78.6723 18.9321 79.009 18.866 79.303 18.7339C79.6013 18.5976 79.8357 18.4058 80.0061 18.1586C80.1808 17.9115 80.2682 17.6153 80.2682 17.2702C80.2682 16.7971 80.0999 16.4157 79.7632 16.126C79.4308 15.8362 78.9578 15.6913 78.3442 15.6913H76.2412V18.9321Z" fill="#E8EDFF"/>
<path d="M87.8102 26.545H84.8443L89.3635 13.4541H92.9303L97.4431 26.545H94.4771L91.198 16.4456H91.0958L87.8102 26.545ZM87.6249 21.3994H94.6306V23.5599H87.6249V21.3994Z" fill="#E8EDFF"/>
</svg>
