<svg width="68" height="40" viewBox="0 0 68 40" fill="none" xmlns="http://www.w3.org/2000/svg">
<path d="M4.7953 0.958008H13.9756C16.2038 0.958008 17.9975 2.74799 17.9975 4.97143V35.9446C17.9975 38.168 16.2038 39.958 13.9756 39.958H4.7953C2.56719 39.958 0.773438 38.168 0.773438 35.9446V4.97143C0.773438 2.74799 2.56719 0.958008 4.7953 0.958008Z" fill="#E8EDFF"/>
<path d="M11.6965 8.10604L11.7093 8.23796C11.9863 8.40129 12.1311 8.53321 12.4143 8.71538C13.1571 9.18652 14.0701 10.022 13.9567 12.8928C14.1706 13.521 14.2651 14.746 14.454 15.1355C14.8381 15.9081 15.1024 16.4107 15.2157 17.1331C15.2157 17.1331 15.3291 18.2638 15.4738 18.3455C16.2417 18.5214 16.0215 18.5968 16.1285 18.735C16.248 18.8857 16.6949 18.8795 16.6949 19.2941C16.8524 19.5014 16.972 19.7087 17.0538 19.9348V5.00279C17.0538 3.29412 15.6688 1.91211 13.9628 1.91211H11.0103C11.4824 2.08172 11.7531 2.28274 11.9106 2.59683C12.2881 2.62824 12.7353 3.4763 12.0364 4.73895C12.3448 4.95254 12.1055 5.26663 11.8852 5.6247C11.816 5.73777 11.7467 5.94508 11.539 5.93251C11.262 6.50416 10.9409 7.0444 10.6955 7.07581C10.6264 7.16376 10.5758 7.40875 10.6829 7.52183C11.0419 7.68516 11.4761 7.89874 11.6965 8.10604Z" fill="#141B35"/>
<path d="M14.4522 38.9625L14.4208 38.9687C15.7742 38.1458 14.9369 36.588 14.6789 35.6708L14.7292 35.5136C14.7984 35.388 14.6537 35.0928 14.6537 35.0928C14.4839 34.9546 14.446 34.1883 14.3578 33.8365C14.2132 33.2649 14.6159 32.2661 14.6159 31.9268C14.6159 31.5874 14.3578 31.1227 13.892 30.5323C13.7786 30.4003 13.4387 27.5044 13.1365 26.7694C12.7148 25.7579 12.5888 25.9212 12.0853 24.709C11.7013 23.8608 12.0034 22.6108 11.1348 19.7086L11.3298 19.5264C11.3298 19.5264 10.6374 17.0011 10.4107 16.3101C10.1903 15.6191 9.78125 15.5751 9.78125 15.5751L9.80634 15.217C9.83791 15.1103 10.6499 13.0058 10.7191 12.9367C10.7253 12.8927 11.89 12.0949 11.9088 12.2143C12.0032 12.7294 12.4565 15.349 12.6515 15.7636C12.8467 16.1845 13.5204 17.466 13.8288 18.2638C12.6265 18.559 11.7262 19.6458 11.7262 20.9336C11.7262 22.4539 12.9601 23.6913 14.4835 23.6913C15.6479 23.6913 16.6553 22.969 17.0581 21.9513L17.0518 35.916C17.0521 37.4612 15.9378 38.7363 14.4522 38.9625Z" fill="#141B35"/>
<path d="M10.0384 1.91211C9.03117 2.30159 8.89268 2.73504 8.855 4.12961C8.68503 4.14846 8.33242 3.98513 8.45211 4.83318C8.45211 4.83318 8.51506 5.39855 8.74168 5.30432C8.56542 6.53557 8.70549 6.84373 7.88564 6.93133C7.70938 6.95018 7.49526 6.96274 7.23095 6.9753L7.14911 7.08838C6.02859 7.19517 5.47357 7.12371 4.7506 8.07463C4.47361 8.43898 4.17774 8.9541 3.81263 9.68908C3.81263 9.68908 3.47899 10.512 3.37818 10.8512C3.05713 11.5234 2.27024 13.0122 2.03732 13.967C1.96187 14.2937 1.817 14.3942 2.02473 14.8653C2.33319 15.5438 1.82329 15.7197 3.57333 15.6694V16.0715C3.57333 16.0715 3.10749 16.4735 3.00677 16.7122C2.91234 16.9572 2.64165 18.157 2.65433 18.7287C2.68572 20.2175 3.90076 21.4612 4.25949 22.9438L5.07156 23.057C5.51221 24.0684 7.43851 26.7945 7.88555 27.2344C7.89185 27.2406 7.89814 27.247 7.90444 27.2533C8.00507 27.5108 8.50247 27.8312 8.79196 28.1516C8.96831 28.3212 9.78046 29.2007 10.8631 30.0363C11.2606 30.3429 11.688 30.6455 12.1347 30.9032C12.1221 30.8968 12.3991 31.4497 12.5376 31.9019C11.9837 32.3478 13.0601 33.1646 13.3875 34.5152C13.4063 34.6972 13.0726 34.8796 13.57 35.3255C13.5385 37.3669 12.9154 38.4351 13.9603 39.0003H4.7506C3.07619 38.9626 1.72266 37.5933 1.72266 35.9159V5.00279C1.72266 3.31297 3.0761 1.9498 4.7506 1.91211H10.0384Z" fill="#141B35"/>
<path fill-rule="evenodd" clip-rule="evenodd" d="M22.6289 1.89453V38.9573H26.6431C26.6536 29.4126 26.8704 19.8295 26.2819 10.3966L30.9097 38.9573H36.6694V1.89453H32.6947C32.6137 11.7214 32.9634 21.411 33.6311 30.9991L28.8223 1.89453H22.6289Z" fill="#E8EDFF"/>
<path fill-rule="evenodd" clip-rule="evenodd" d="M57.4259 1.86914L53.4805 38.963H58.3893L59.0316 31.4623H62.243L62.8853 38.963H67.7712L63.9405 1.86914H57.4259ZM60.6373 12.3394L61.876 27.1104H59.3986L60.6373 12.3394Z" fill="#E8EDFF"/>
<path d="M39.7656 1.89455V38.9372H46.9454C48.1223 38.9372 52.1295 37.9109 52.1295 32.7677V25.3694C52.1295 24.5899 52.1361 22.1461 49.9962 20.7103C51.3334 20.7103 52.1295 18.1217 52.1295 15.7696V7.83367C52.1295 4.74161 50.2009 1.88614 46.3261 1.89455H39.7656ZM44.1928 6.63048H46.3719C47.3702 6.63048 47.7024 7.73024 47.7024 8.57606V17.2031C47.7024 18.6788 47.2162 18.7903 46.2114 18.7903H44.1928V6.63048ZM44.1928 22.8351H46.3719C47.3702 22.8351 47.7024 23.9348 47.7024 24.7806V32.4861C47.7024 33.4901 47.2008 34.2525 46.2114 34.2525L44.1928 34.2781V22.8351Z" fill="#E8EDFF"/>
</svg>
