<svg width="81" height="47" viewBox="0 0 81 47" fill="none" xmlns="http://www.w3.org/2000/svg">
<g clip-path="url(#clip0_412_12670)">
<path d="M5.5573 0.124023H16.5394C19.2048 0.124023 21.3506 2.26982 21.3506 4.93523V42.0652C21.3506 44.7306 19.2048 46.8764 16.5394 46.8764H5.5573C2.89189 46.8764 0.746094 44.7306 0.746094 42.0652V4.93523C0.746094 2.26982 2.89189 0.124023 5.5573 0.124023Z" fill="#E8EDFF"/>
<path d="M13.8119 8.69372L13.8272 8.85186C14.1585 9.04765 14.3317 9.2058 14.6705 9.42418C15.5591 9.98898 16.6513 10.9905 16.5156 14.432C16.7715 15.1851 16.8846 16.6536 17.1105 17.1204C17.57 18.0467 17.8862 18.6492 18.0217 19.5152C18.0217 19.5152 18.1574 20.8707 18.3305 20.9686C19.2491 21.1794 18.9857 21.2698 19.1137 21.4355C19.2566 21.6162 19.7913 21.6087 19.7913 22.1057C19.9797 22.3542 20.1228 22.6027 20.2205 22.8738V4.97361C20.2205 2.92528 18.5638 1.26855 16.5229 1.26855H12.991C13.5558 1.47188 13.8796 1.71286 14.0679 2.08939C14.5196 2.12704 15.0546 3.14367 14.2185 4.65732C14.5874 4.91336 14.3012 5.28989 14.0376 5.71913C13.9548 5.85468 13.8719 6.10319 13.6234 6.08813C13.2921 6.77342 12.9079 7.42105 12.6144 7.4587C12.5317 7.56413 12.4713 7.85782 12.5993 7.99337C13.0288 8.18917 13.5482 8.44521 13.8119 8.69372Z" fill="#141B35"/>
<path d="M17.1102 45.6832L17.0726 45.6908C18.6916 44.7043 17.69 42.8368 17.3814 41.7373L17.4415 41.5488C17.5243 41.3982 17.3512 41.0444 17.3512 41.0444C17.148 40.8787 17.1027 39.9601 16.9972 39.5384C16.8242 38.8531 17.306 37.6557 17.306 37.2491C17.306 36.8422 16.9972 36.2851 16.44 35.5773C16.3044 35.4191 15.8977 31.9475 15.5363 31.0665C15.0317 29.8539 14.881 30.0496 14.2788 28.5964C13.8193 27.5797 14.1808 26.0812 13.1416 22.6021L13.375 22.3837C13.375 22.3837 12.5466 19.3564 12.2754 18.528C12.0117 17.6997 11.5225 17.647 11.5225 17.647L11.5525 17.2177C11.5902 17.0897 12.5616 14.5669 12.6444 14.4841C12.6518 14.4314 14.0451 13.475 14.0676 13.6181C14.1804 14.2356 14.7228 17.3759 14.9561 17.8729C15.1895 18.3774 15.9955 19.9137 16.3644 20.87C14.9261 21.224 13.8491 22.5268 13.8491 24.0707C13.8491 25.8931 15.3252 27.3765 17.1476 27.3765C18.5406 27.3765 19.7457 26.5106 20.2275 25.2906L20.22 42.0312C20.2203 43.8835 18.8874 45.4121 17.1102 45.6832Z" fill="#141B35"/>
<path d="M11.8306 1.26855C10.6257 1.73545 10.46 2.25506 10.415 3.92685C10.2116 3.94944 9.78983 3.75365 9.93301 4.77028C9.93301 4.77028 10.0083 5.44803 10.2794 5.33507C10.0686 6.81107 10.2361 7.18049 9.25536 7.2855C9.04451 7.30809 8.78836 7.32315 8.47218 7.33821L8.37428 7.47376C7.03384 7.60178 6.36989 7.51612 5.50503 8.65606C5.17368 9.09284 4.81974 9.71035 4.38297 10.5914C4.38297 10.5914 3.98385 11.5779 3.86325 11.9846C3.47919 12.7904 2.53787 14.5751 2.25924 15.7198C2.16897 16.1113 1.99567 16.2318 2.24418 16.7966C2.61318 17.6099 2.0032 17.8208 4.0967 17.7605V18.2425C4.0967 18.2425 3.53944 18.7245 3.41895 19.0106C3.30599 19.3043 2.98217 20.7427 2.99734 21.4279C3.03489 23.2127 4.4884 24.7036 4.91754 26.481L5.88898 26.6166C6.41612 27.829 8.72048 31.0971 9.25526 31.6244C9.26279 31.6319 9.27032 31.6395 9.27785 31.6471C9.39823 31.9557 9.99326 32.3399 10.3396 32.7239C10.5505 32.9273 11.5221 33.9815 12.8172 34.9832C13.2927 35.3509 13.8039 35.7136 14.3384 36.0224C14.3233 36.0148 14.6547 36.6776 14.8204 37.2197C14.1577 37.7543 15.4454 38.7334 15.837 40.3525C15.8596 40.5707 15.4604 40.7893 16.0554 41.3239C16.0177 43.7711 15.2723 45.0516 16.5223 45.7292H5.50503C3.50199 45.684 1.88281 44.0424 1.88281 42.0316V4.9736C1.88281 2.94788 3.50189 1.31374 5.50503 1.26855H11.8306Z" fill="#141B35"/>
<path fill-rule="evenodd" clip-rule="evenodd" d="M26.8926 1.24609V45.6762H31.6946C31.7071 34.2342 31.9666 22.7462 31.2625 11.4382L36.7986 45.6762H43.6888V1.24609H38.9339C38.837 13.0264 39.2553 24.642 40.0541 36.1361L34.3015 1.24609H26.8926Z" fill="#E8EDFF"/>
<path fill-rule="evenodd" clip-rule="evenodd" d="M68.5196 1.21582L63.7998 45.6832H69.6721L70.4404 36.6915H74.2821L75.0504 45.6832H80.8953L76.3127 1.21582H68.5196ZM72.3613 13.7674L73.8431 31.4745H70.8795L72.3613 13.7674Z" fill="#E8EDFF"/>
<path d="M47.3906 1.24612V45.6521H55.9795C57.3874 45.6521 62.1811 44.4218 62.1811 38.2563V29.3873C62.1811 28.4528 62.189 25.5233 59.6291 23.802C61.2287 23.802 62.1811 20.6989 62.1811 17.8792V8.36581C62.1811 4.65911 59.8739 1.23603 55.2386 1.24612H47.3906ZM52.6867 6.92346H55.2935C56.4877 6.92346 56.8851 8.24182 56.8851 9.25577V19.5977C56.8851 21.3667 56.3035 21.5004 55.1014 21.5004H52.6867V6.92346ZM52.6867 26.3492H55.2935C56.4877 26.3492 56.8851 27.6675 56.8851 28.6815V37.9187C56.8851 39.1222 56.285 40.0362 55.1014 40.0362L52.6867 40.0668V26.3492Z" fill="#E8EDFF"/>
</g>
<defs>
<clipPath id="clip0_412_12670">
<rect width="80.1497" height="46.7524" fill="white" transform="translate(0.746094 0.124023)"/>
</clipPath>
</defs>
</svg>
