<svg width="68" height="40" viewBox="0 0 68 40" fill="none" xmlns="http://www.w3.org/2000/svg">
<path d="M4.19765 0.194336H13.378C15.6061 0.194336 17.3999 1.98432 17.3999 4.20776V35.1809C17.3999 37.4044 15.6061 39.1943 13.378 39.1943H4.19765C1.96953 39.1943 0.175781 37.4044 0.175781 35.1809V4.20776C0.175781 1.98432 1.96953 0.194336 4.19765 0.194336Z" fill="#E8EDFF"/>
<path d="M11.0969 7.34237L11.1097 7.47429C11.3867 7.63762 11.5315 7.76954 11.8147 7.95171C12.5575 8.42285 13.4704 9.25834 13.357 12.1292C13.571 12.7573 13.6655 13.9823 13.8544 14.3718C14.2384 15.1445 14.5028 15.647 14.6161 16.3694C14.6161 16.3694 14.7295 17.5002 14.8742 17.5818C15.6421 17.7577 15.4219 17.8331 15.5289 17.9713C15.6484 18.1221 16.0953 18.1158 16.0953 18.5304C16.2528 18.7377 16.3724 18.945 16.4541 19.1711V4.23912C16.4541 2.53045 15.0692 1.14844 13.3632 1.14844H10.4107C10.8828 1.31805 11.1535 1.51907 11.311 1.83316C11.6885 1.86457 12.1357 2.71263 11.4368 3.97528C11.7452 4.18887 11.5059 4.50296 11.2856 4.86103C11.2164 4.9741 11.1471 5.1814 10.9394 5.16884C10.6624 5.74049 10.3413 6.28073 10.0959 6.31214C10.0268 6.40009 9.97623 6.64508 10.0832 6.75815C10.4423 6.92148 10.8765 7.13507 11.0969 7.34237Z" fill="#141B35"/>
<path d="M13.8546 38.1988L13.8232 38.2051C15.1765 37.3821 14.3393 35.8243 14.0813 34.9072L14.1315 34.7499C14.2008 34.6243 14.0561 34.3291 14.0561 34.3291C13.8862 34.1909 13.8483 33.4246 13.7601 33.0729C13.6155 32.5012 14.0182 31.5024 14.0182 31.1632C14.0182 30.8238 13.7601 30.359 13.2944 29.7686C13.181 29.6367 12.841 26.7407 12.5389 26.0057C12.1171 24.9943 11.9911 25.1575 11.4877 23.9453C11.1036 23.0971 11.4058 21.8471 10.5371 18.9449L10.7322 18.7627C10.7322 18.7627 10.0397 16.2374 9.81302 15.5464C9.5926 14.8554 9.18359 14.8114 9.18359 14.8114L9.20869 14.4534C9.24025 14.3466 10.0522 12.2421 10.1215 12.173C10.1277 12.1291 11.2924 11.3313 11.3112 11.4506C11.4055 11.9657 11.8588 14.5853 12.0539 14.9999C12.249 15.4208 12.9228 16.7023 13.2312 17.5001C12.0288 17.7953 11.1285 18.8821 11.1285 20.17C11.1285 21.6902 12.3624 22.9276 13.8859 22.9276C15.0503 22.9276 16.0577 22.2053 16.4605 21.1876L16.4542 35.1523C16.4544 36.6975 15.3402 37.9726 13.8546 38.1988Z" fill="#141B35"/>
<path d="M9.44268 1.14844C8.43547 1.53791 8.29698 1.97136 8.25929 3.36594C8.08932 3.38479 7.73671 3.22146 7.85641 4.06951C7.85641 4.06951 7.91936 4.63488 8.14598 4.54065C7.96972 5.7719 8.10978 6.08006 7.28994 6.16766C7.11367 6.1865 6.89955 6.19907 6.63525 6.21163L6.55341 6.32471C5.43288 6.4315 4.87787 6.36004 4.15489 7.31096C3.87791 7.67531 3.58204 8.19042 3.21692 8.9254C3.21692 8.9254 2.88328 9.74833 2.78247 10.0876C2.46143 10.7597 1.67454 12.2485 1.44162 13.2034C1.36617 13.53 1.22129 13.6305 1.42903 14.1017C1.73749 14.7801 1.22759 14.956 2.97762 14.9058V15.3078C2.97762 15.3078 2.51179 15.7098 2.41106 15.9485C2.31664 16.1935 2.04595 17.3934 2.05863 17.965C2.09001 19.4538 3.30506 20.6976 3.66379 22.1802L4.47585 22.2933C4.91651 23.3047 6.84281 26.0309 7.28985 26.4707C7.29614 26.477 7.30244 26.4833 7.30873 26.4896C7.40937 26.7471 7.90677 27.0676 8.19625 27.3879C8.3726 27.5575 9.18476 28.437 10.2674 29.2726C10.6649 29.5793 11.0923 29.8818 11.539 30.1395C11.5264 30.1331 11.8034 30.686 11.9419 31.1382C11.388 31.5841 12.4644 32.401 12.7918 33.7516C12.8106 33.9336 12.4769 34.1159 12.9743 34.5618C12.9428 36.6033 12.3197 37.6715 13.3646 38.2367H4.15489C2.48049 38.199 1.12695 36.8296 1.12695 35.1522V4.23912C1.12695 2.5493 2.4804 1.18613 4.15489 1.14844H9.44268Z" fill="#141B35"/>
<path fill-rule="evenodd" clip-rule="evenodd" d="M22.0332 1.13086V38.1936H26.0474C26.0579 28.649 26.2747 19.0659 25.6862 9.63289L30.314 38.1936H36.0737V1.13086H32.099C32.018 10.9577 32.3677 20.6473 33.0354 30.2355L28.2266 1.13086H22.0332Z" fill="#E8EDFF"/>
<path fill-rule="evenodd" clip-rule="evenodd" d="M56.8302 1.10547L52.8848 38.1994H57.7936L58.4359 30.6987H61.6473L62.2896 38.1994H67.1755L63.3448 1.10547H56.8302ZM60.0416 11.5757L61.2803 26.3467H58.8029L60.0416 11.5757Z" fill="#E8EDFF"/>
<path d="M39.168 1.13088V38.1736H46.3477C47.5246 38.1736 51.5319 37.1473 51.5319 32.0041V24.6058C51.5319 23.8262 51.5385 21.3825 49.3986 19.9466C50.7357 19.9466 51.5319 17.358 51.5319 15.0059V7.07C51.5319 3.97794 49.6032 1.12246 45.7284 1.13088H39.168ZM43.5951 5.86681H45.7743C46.7725 5.86681 47.1047 6.96657 47.1047 7.81239V16.4395C47.1047 17.9151 46.6186 18.0266 45.6137 18.0266H43.5951V5.86681ZM43.5951 22.0714H45.7743C46.7725 22.0714 47.1047 23.1711 47.1047 24.017V31.7225C47.1047 32.7264 46.6031 33.4888 45.6137 33.4888L43.5951 33.5144V22.0714Z" fill="#E8EDFF"/>
</svg>
