<svg width="20" height="20" viewBox="0 0 20 20" fill="none" xmlns="http://www.w3.org/2000/svg">
<path d="M16.6663 10.0001V15.0001C16.6663 16.8417 15.1747 18.3334 13.333 18.3334H6.66634C4.82467 18.3334 3.33301 16.8417 3.33301 15.0001V10.0001C3.33301 9.54175 3.70801 9.16675 4.16634 9.16675H5.80801C6.26634 9.16675 6.64134 9.54175 6.64134 10.0001V12.6167C6.64134 13.2334 6.98301 13.8001 7.52467 14.0917C7.76634 14.2251 8.03301 14.2917 8.30801 14.2917C8.62467 14.2917 8.94134 14.2001 9.21634 14.0167L10.008 13.5001L10.7413 13.9917C11.2497 14.3334 11.8997 14.3751 12.4413 14.0834C12.9913 13.7917 13.333 13.2334 13.333 12.6084V10.0001C13.333 9.54175 13.708 9.16675 14.1663 9.16675H15.833C16.2913 9.16675 16.6663 9.54175 16.6663 10.0001Z" fill="#298AFF"/>
<path d="M17.9163 5.83341V6.66675C17.9163 7.58341 17.4747 8.33341 16.2497 8.33341H3.74967C2.47467 8.33341 2.08301 7.58341 2.08301 6.66675V5.83341C2.08301 4.91675 2.47467 4.16675 3.74967 4.16675H16.2497C17.4747 4.16675 17.9163 4.91675 17.9163 5.83341Z" fill="#298AFF"/>
<path d="M9.69998 4.16662H5.09998C4.81665 3.85828 4.82498 3.38328 5.12498 3.08328L6.30832 1.89995C6.61665 1.59162 7.12498 1.59162 7.43332 1.89995L9.69998 4.16662Z" fill="#298AFF"/>
<path d="M14.891 4.16662H10.291L12.5577 1.89995C12.866 1.59162 13.3743 1.59162 13.6827 1.89995L14.866 3.08328C15.166 3.38328 15.1743 3.85828 14.891 4.16662Z" fill="#298AFF"/>
<path d="M11.6419 9.16675C12.1002 9.16675 12.4752 9.54175 12.4752 10.0001V12.6084C12.4752 13.2751 11.7335 13.6751 11.1835 13.3001L10.4335 12.8001C10.1585 12.6167 9.8002 12.6167 9.51686 12.8001L8.73353 13.3167C8.18353 13.6834 7.4502 13.2834 7.4502 12.6251V10.0001C7.4502 9.54175 7.8252 9.16675 8.28353 9.16675H11.6419Z" fill="#298AFF"/>
</svg>
