<svg width="20" height="20" viewBox="0 0 20 20" fill="none" xmlns="http://www.w3.org/2000/svg">
<path d="M20 10C20 15.5228 15.5228 20 10 20C4.47715 20 0 15.5228 0 10C0 4.47715 4.47715 0 10 0C15.5228 0 20 4.47715 20 10Z" fill="url(#paint0_linear_455_5347)"/>
<path d="M14.5981 14.2857H5.97571C5.82961 14.2868 5.68583 14.2479 5.55901 14.173C5.43219 14.098 5.32689 13.9897 5.25377 13.8591C5.18068 13.7285 5.14242 13.5802 5.14286 13.4293C5.14334 13.2785 5.18249 13.1304 5.25639 13.0003L9.33254 5.71089C9.42919 5.53818 9.56813 5.39476 9.73543 5.29506C9.90277 5.19535 10.0925 5.14286 10.2857 5.14286C10.4789 5.14286 10.6687 5.19535 10.836 5.29506C11.0033 5.39476 11.1423 5.53818 11.2389 5.71089L15.315 13.0003C15.3889 13.1304 15.4281 13.2785 15.4286 13.4293C15.429 13.5802 15.3907 13.7285 15.3177 13.8591C15.2446 13.9897 15.1392 14.098 15.0124 14.173C14.8856 14.2479 14.7418 14.2868 14.5957 14.2857H14.5981ZM7.41555 12.5722H13.1606L10.2881 7.43414L7.41555 12.5722Z" fill="#F5F5F5"/>
<defs>
<linearGradient id="paint0_linear_455_5347" x1="3.21791" y1="22.6251" x2="18.8121" y2="9.20035" gradientUnits="userSpaceOnUse">
<stop stop-color="#0073D1"/>
<stop offset="0.06" stop-color="#0082CE"/>
<stop offset="0.22" stop-color="#00A0C9"/>
<stop offset="0.39" stop-color="#00B8C4"/>
<stop offset="0.57" stop-color="#00C9C1"/>
<stop offset="0.76" stop-color="#00D3C0"/>
<stop offset="1" stop-color="#00D6BF"/>
</linearGradient>
</defs>
</svg>
