<svg width="18" height="19" viewBox="0 0 18 19" fill="none" xmlns="http://www.w3.org/2000/svg">
<rect y="0.5" width="18" height="18" rx="9" fill="#2B61E5"/>
<path fill-rule="evenodd" clip-rule="evenodd" d="M10.2245 7.51689C10.7018 7.51689 11.1162 7.59156 11.4679 7.7409C11.8195 7.87946 12.0959 8.07134 12.3344 8.32729C12.5604 8.57248 12.7238 8.86038 12.8368 9.19065C12.9498 9.52127 13 9.87307 13 10.2568C13 10.8432 12.8745 11.3871 12.6106 11.9094C12.3471 12.4211 12.0078 12.8903 11.5683 13.2633C11.1289 13.6472 10.6138 13.9563 10.011 14.1697C9.40825 14.3936 8.76783 14.5 8.07704 14.5C7.98921 14.5 7.82582 14.5 7.59979 14.4894C7.37376 14.4894 7.11005 14.4682 6.83365 14.4361C6.79308 14.4301 6.75201 14.4241 6.71053 14.4181C6.4566 14.3811 6.18679 14.3419 5.91683 14.2869C5.59026 14.2229 5.28889 14.127 5 14.0096L7.5873 4.80908L9.89799 4.5L8.98116 7.76225C9.18222 7.68777 9.37058 7.62387 9.57164 7.59174C9.78497 7.53843 9.99852 7.51689 10.2245 7.51689ZM9.25757 12.709C8.95619 12.869 8.62963 12.9329 8.27788 12.9329C8.16487 12.9329 7.85101 12.9329 7.54942 12.8903L8.51661 9.41465C8.70497 9.28685 8.89333 9.19083 9.11936 9.14811C9.3454 9.10557 9.4836 9.0948 9.6218 9.0948C10.0487 9.0948 10.3752 9.19083 10.5386 9.42542C10.7018 9.65984 10.7771 9.9691 10.7771 10.3742C10.7771 10.7047 10.7143 11.0139 10.5888 11.323C10.4631 11.6217 10.2874 11.8988 10.0614 12.1332C9.84297 12.37 9.56933 12.566 9.25757 12.709Z" fill="white"/>
</svg>
