<svg width="20" height="20" viewBox="0 0 20 20" fill="none" xmlns="http://www.w3.org/2000/svg">
<path d="M20 10C20 15.5228 15.5228 20 10 20C4.47715 20 0 15.5228 0 10C0 4.47715 4.47715 0 10 0C15.5228 0 20 4.47715 20 10Z" fill="#2B2B36"/>
<path d="M14.1403 6.51451H15.4286V12.8002H14.3124L11.3497 8.807V12.8002H10.0572V6.51451H11.1776L14.1403 10.5121V6.51451Z" fill="#00C26F"/>
<path d="M6.53378 12.0126C6.78066 12.0126 6.98206 11.978 7.13799 11.9089C7.30041 11.8336 7.42385 11.7363 7.50831 11.617C7.59926 11.4914 7.66098 11.3501 7.69347 11.1931C7.72595 11.0298 7.74219 10.8634 7.74219 10.6939V10.5243H9.02857V10.6939C9.02857 11.4788 8.81418 12.0848 8.38538 12.5118C7.96309 12.9325 7.34588 13.1429 6.53378 13.1429C5.75415 13.1429 5.13695 12.9137 4.68217 12.4553C4.22739 11.9969 4 11.3281 4 10.449V8.97959C4 8.55887 4.05847 8.1821 4.17542 7.84929C4.29236 7.5102 4.46128 7.22763 4.68217 7.00157C4.90306 6.76923 5.16944 6.59341 5.48128 6.4741C5.79313 6.34851 6.14396 6.28571 6.53378 6.28571C6.93658 6.28571 7.29391 6.34223 7.60576 6.45526C7.91761 6.56829 8.17748 6.73155 8.38538 6.94506C8.59978 7.15856 8.75895 7.41601 8.8629 7.71743C8.97335 8.01884 9.02857 8.35793 9.02857 8.73469V8.90424H7.74219V8.73469C7.74219 8.57771 7.7227 8.42072 7.68372 8.26374C7.64474 8.10675 7.57977 7.96546 7.48882 7.83987C7.39786 7.71429 7.27442 7.61382 7.11849 7.53846C6.96257 7.45683 6.76766 7.41601 6.53378 7.41601C6.31938 7.41601 6.13422 7.45683 5.9783 7.53846C5.82237 7.61382 5.69243 7.72057 5.58848 7.85871C5.48453 7.99058 5.40657 8.14757 5.3546 8.32967C5.30912 8.5055 5.28638 8.69074 5.28638 8.8854V10.5432C5.28638 10.7567 5.30912 10.9545 5.3546 11.1366C5.40007 11.3124 5.47154 11.4662 5.56899 11.5981C5.66645 11.73 5.79313 11.8336 5.94906 11.9089C6.11148 11.978 6.30639 12.0126 6.53378 12.0126Z" fill="#F5F5F5"/>
</svg>
