<svg width="18" height="19" viewBox="0 0 18 19" fill="none" xmlns="http://www.w3.org/2000/svg">
<rect y="0.5" width="18" height="18" rx="9" fill="#5022ED"/>
<path d="M13.3462 6.81977L12.6846 7.77274C12.4825 7.68111 12.2436 7.62613 12.0047 7.62613C11.8576 7.62613 11.729 7.64446 11.6004 7.68111C11.582 7.68111 11.5636 7.68111 11.5452 7.69944C11.3431 7.75442 11.1409 7.82772 10.9755 7.95601C10.9572 7.97434 10.9388 7.97434 10.9204 7.99266C10.7734 8.10262 10.6264 8.2309 10.5161 8.39584C10.0935 8.92732 9.76269 9.69701 9.193 10.5217C9.13786 10.595 9.08275 10.6866 9.00922 10.76C8.56817 11.3647 7.98013 11.8595 7.30018 12.1894C7.26343 12.2077 7.22668 12.2261 7.18993 12.2444C7.09804 12.281 6.98778 12.3177 6.89589 12.3543C6.82239 12.3727 6.76725 12.391 6.69375 12.4093C6.50999 12.446 6.30784 12.4826 6.12406 12.4826C6.08731 12.4826 6.05056 12.4826 5.99541 12.4826C4.34151 12.4826 3 11.1448 3 9.49543C3 7.84605 4.34151 6.50822 5.99541 6.50822C6.76725 6.50822 7.52069 6.80144 8.07202 7.35124L7.41044 8.30421C6.74889 7.49785 5.57276 7.40622 4.80093 8.08429C4.01073 8.74404 3.91884 9.91694 4.58041 10.705C4.92957 11.1265 5.4625 11.3647 5.99541 11.3647C6.03217 11.3647 6.06894 11.3647 6.12406 11.3647C6.38134 11.3464 6.62024 11.2914 6.84075 11.1631C6.84075 11.1631 6.84075 11.1631 6.85914 11.1631C7.50233 10.8699 8.01688 10.2101 8.89896 8.68906C8.93572 8.63409 8.97247 8.56078 9.00922 8.48748C9.30326 7.95601 9.70755 7.49785 10.1853 7.11299C10.2037 7.09467 10.2221 7.09467 10.2405 7.07634C10.2588 7.05801 10.2956 7.03969 10.314 7.02136C10.3691 6.98471 10.4242 6.94806 10.4794 6.9114C10.5529 6.87475 10.6264 6.8381 10.6999 6.80144L10.755 6.76479C10.7918 6.74647 10.8285 6.72814 10.8469 6.72814C10.8837 6.70981 10.9388 6.69149 10.9755 6.67316C11.7658 6.39826 12.6111 6.45324 13.3462 6.81977Z" fill="white"/>
<path d="M15 8.92713V9.49524C15 9.60522 15 9.69684 14.9816 9.8068C14.9632 9.89842 14.9632 9.97174 14.9449 10.0634C14.6325 11.6944 13.0704 12.7573 11.4349 12.4458C10.8836 12.3358 10.3874 12.0793 9.96473 11.7128L10.6263 10.7598C11.3246 11.5111 12.5007 11.5661 13.2542 10.8697C13.4931 10.6498 13.6769 10.3749 13.7688 10.0634H11.9127L12.7029 8.92713H15Z" fill="white"/>
</svg>
