<svg width="20" height="20" viewBox="0 0 20 20" fill="none" xmlns="http://www.w3.org/2000/svg">
<circle cx="10" cy="10" r="10" fill="#D24508"/>
<path d="M16 9.40647V9.34251C14.8905 9.28903 13.8392 8.77025 13.0543 7.88878C12.2694 7.00731 11.808 5.82738 11.7615 4.5825H11.7045C11.6752 5.34396 11.4907 6.08092 11.1721 6.73999C11.511 7.21768 11.8337 7.74763 12.1291 8.32154C12.5564 9.15199 12.8841 9.99217 13.1095 10.7965C13.8886 9.95324 14.9167 9.45812 16 9.40647Z" fill="#F5F5F5"/>
<path d="M7.46174 9.33851V9.40247C8.57107 9.45567 9.62221 9.97402 10.4072 10.8551C11.1922 11.736 11.6539 12.9155 11.7009 14.1601H11.758C11.8064 12.9159 12.2691 11.7372 13.0545 10.8571C13.0727 10.8367 13.091 10.8165 13.1095 10.7965C12.8841 9.99217 12.5564 9.15199 12.1291 8.32154C11.8337 7.74763 11.511 7.21768 11.1721 6.73999C10.9698 7.15833 10.7135 7.54528 10.4084 7.88721C10.3864 7.91185 10.3643 7.93621 10.3419 7.96028C9.56395 8.79649 8.54025 9.28721 7.46174 9.33851Z" fill="#F5F5F5"/>
<path d="M12.8539 15.4457C11.7002 16.74 8.89287 15.6905 6.58467 13.1009C4.27648 10.5113 3.34022 7.36009 4.49396 6.06729C5.5782 4.85237 8.12346 5.70402 10.3419 7.96028M10.764 8.41129C10.6249 8.25529 10.4841 8.1049 10.3419 7.96028M13.1095 10.7965C12.8841 9.99217 12.5564 9.15199 12.1291 8.32154C11.8337 7.74763 11.511 7.21768 11.1721 6.73999M13.1095 10.7965C13.091 10.8165 13.0727 10.8367 13.0545 10.8571C12.2691 11.7372 11.8064 12.9159 11.758 14.1601H11.7009C11.6539 12.9155 11.1922 11.736 10.4072 10.8551C9.62221 9.97402 8.57107 9.45567 7.46174 9.40247V9.33851C8.54025 9.28721 9.56395 8.79649 10.3419 7.96028M13.1095 10.7965C13.7452 13.0643 13.5686 15.0471 12.525 15.723C11.1114 16.6387 8.64208 14.8095 7.00972 11.6375C5.37735 8.46552 5.20006 5.15176 6.61373 4.23607C7.77163 3.48606 9.63772 4.57748 11.1721 6.73999M13.1095 10.7965C13.8886 9.95324 14.9167 9.45812 16 9.40647V9.34251C14.8905 9.28903 13.8392 8.77025 13.0543 7.88878C12.2694 7.00731 11.808 5.82738 11.7615 4.5825H11.7045C11.6752 5.34396 11.4907 6.08092 11.1721 6.73999M11.1721 6.73999C10.9698 7.15833 10.7135 7.54528 10.4084 7.88721C10.3864 7.91185 10.3643 7.93621 10.3419 7.96028" stroke="#F5F5F5" stroke-miterlimit="10"/>
</svg>
