<svg width="26" height="26" viewBox="0 0 26 26" fill="none" xmlns="http://www.w3.org/2000/svg">
<circle cx="13" cy="13" r="13" fill="#7D00FF"/>
<path d="M18.5391 9.92031C19.1918 9.92031 19.8177 9.66112 20.2792 9.19975C20.7407 8.73838 21 8.11263 21 7.46016C21 6.80768 20.7407 6.18193 20.2792 5.72056C19.8177 5.25919 19.1918 5 18.5391 5C17.8864 5 17.2605 5.25919 16.7989 5.72056C16.3374 6.18193 16.0782 6.80768 16.0782 7.46016C16.0782 8.11263 16.3374 8.73838 16.7989 9.19975C17.2605 9.66112 17.8864 9.92031 18.5391 9.92031ZM10.9915 21C9.40114 20.9987 7.87643 20.3658 6.75281 19.2407C5.62918 18.1155 4.99868 16.5902 5 15.0004C5.00133 13.4105 5.63437 11.8863 6.75987 10.763C7.88537 9.63971 9.41113 9.00941 11.0015 9.01073C12.5919 9.01206 14.1166 9.6449 15.2402 10.7701C16.3638 11.8952 16.9943 13.4205 16.993 15.0104C16.9917 16.6002 16.3586 18.1245 15.2331 19.2477C14.1076 20.371 12.5819 21.0013 10.9915 21Z" fill="white"/>
</svg>
