<svg width="18" height="19" viewBox="0 0 18 19" fill="none" xmlns="http://www.w3.org/2000/svg">
<rect y="0.5" width="18" height="18" rx="9" fill="#00A754"/>
<path fill-rule="evenodd" clip-rule="evenodd" d="M7.49565 5.67478C7.25867 5.44174 6.87439 5.44174 6.63769 5.67478L3.17774 9.07801C2.94075 9.31105 2.94075 9.68894 3.17774 9.92198L6.6374 13.3252C6.87439 13.5583 7.25867 13.5583 7.49537 13.3252L8.99986 11.8452L7.04468 9.92198C6.8077 9.68894 6.8077 9.31105 7.04468 9.07801L8.99986 7.1548L7.49565 5.67478Z" fill="white"/>
<path fill-rule="evenodd" clip-rule="evenodd" d="M11.3626 5.67478C11.1256 5.44174 10.7413 5.44174 10.5046 5.67478L9.00015 7.15452L10.9553 9.07773C11.1923 9.31077 11.1923 9.68866 10.9553 9.9217L9.00015 11.8449L10.5046 13.3249C10.7416 13.558 11.1259 13.558 11.3626 13.3249L14.8223 9.9217C15.0592 9.68866 15.0592 9.31077 14.8223 9.07773L11.3626 5.67478Z" fill="white"/>
</svg>
