<svg width="26" height="26" viewBox="0 0 26 26" fill="none" xmlns="http://www.w3.org/2000/svg">
<circle cx="13" cy="13" r="13" fill="#2D29D7"/>
<path d="M7.88454 10.2108C8.06934 10.4018 8.17182 10.6561 8.17182 10.9261C8.17182 11.196 8.06934 11.4521 7.88454 11.6431L7.71402 11.8193M7.88454 10.2108L6.37927 14.3254C6.33727 14.3072 6.29275 14.2629 6.29275 14.1926V10.7985C6.29275 10.7281 6.33727 10.6839 6.37927 10.6657C6.41959 10.6474 6.48175 10.6474 6.52963 10.6969L7.61574 11.8193C7.64178 11.8445 7.68966 11.8445 7.71402 11.8193M7.88454 10.2108L5.4116 7.65606L7.88454 10.2108ZM7.71402 11.8193L7.78587 11.8888L7.78593 11.8888M7.71402 11.8193L7.78593 11.8888M7.78593 11.8888C7.75114 11.9248 7.70495 11.9382 7.66551 11.9382C7.62587 11.9382 7.58091 11.9248 7.54618 11.8911L7.54384 11.8889L7.54388 11.8888L6.45776 10.7664L6.45776 10.7664C6.44969 10.7581 6.44258 10.7556 6.43707 10.7548C6.43026 10.7538 6.42395 10.7552 6.4205 10.7568L6.41912 10.7574L6.41912 10.7574C6.41262 10.7602 6.40558 10.7654 6.40064 10.772C6.39644 10.7777 6.39275 10.7857 6.39275 10.7985V14.1926C6.39275 14.2054 6.39644 14.2134 6.40064 14.2191C6.40532 14.2254 6.41189 14.2303 6.41809 14.2333C6.42363 14.2353 6.43101 14.2365 6.43787 14.2355C6.4437 14.2347 6.4503 14.2324 6.45776 14.2247L6.45777 14.2246L14.3965 6.02227C14.478 5.93804 14.5929 5.9 14.7015 5.9C14.8102 5.9 14.925 5.93803 15.0064 6.02225C15.0065 6.02225 15.0065 6.02226 15.0065 6.02227L20.975 12.1886C20.9751 12.1886 20.9751 12.1887 20.9752 12.1888C21.1419 12.359 21.1412 12.6369 20.9755 12.8081L20.8036 12.9857V12.984L15.0065 18.9731C15.0065 18.9732 15.0065 18.9732 15.0064 18.9732C14.8428 19.1423 14.5601 19.1423 14.3965 18.9731L10.4077 14.8502C10.4077 14.8501 10.4077 14.8501 10.4076 14.85C10.2024 14.6398 10.092 14.3602 10.092 14.065C10.092 13.7694 10.2043 13.49 10.4074 13.2802L10.578 13.1039C10.6094 13.0702 10.6537 13.0501 10.6994 13.0501C10.746 13.0501 10.7893 13.0697 10.8199 13.1014L10.8199 13.1014L14.5892 16.9975C14.5893 16.9976 14.5894 16.9977 14.5895 16.9978C14.6486 17.0575 14.7528 17.0575 14.8118 16.9978C14.8119 16.9977 14.812 16.9976 14.8121 16.9975L19.0518 12.6161C19.1142 12.5516 19.1142 12.4439 19.0518 12.3793L14.8121 7.99793C14.812 7.99785 14.812 7.99777 14.8119 7.99769C14.7516 7.93673 14.6481 7.93779 14.5921 7.99668L14.5915 7.99733L5.48179 17.4063C5.38216 17.5093 5.24005 17.5366 5.11047 17.483L5.10901 17.4824C4.9784 17.4259 4.9 17.3003 4.9 17.1597V7.83141C4.9 7.69155 4.97785 7.56514 5.10943 7.51026C5.23972 7.45341 5.38414 7.48509 5.48305 7.5861L5.48345 7.58651L5.48345 7.58651L7.95639 10.1412L7.9564 10.1413C8.15947 10.3511 8.27182 10.6305 8.27182 10.9261C8.27182 11.2215 8.1596 11.5026 7.95641 11.7126L7.9564 11.7127L7.78593 11.8888Z" fill="white" stroke="white" stroke-width="0.2"/>
</svg>
