<svg width="18" height="19" viewBox="0 0 18 19" fill="none" xmlns="http://www.w3.org/2000/svg">
<rect y="0.5" width="18" height="18" rx="9" fill="#00CCB8"/>
<path d="M13.1926 13.5H4.80972C4.66768 13.5011 4.52789 13.4628 4.40459 13.389C4.28129 13.3153 4.17892 13.2086 4.10783 13.0801C4.03677 12.9515 3.99957 12.8055 4 12.657C4.00047 12.5085 4.03853 12.3627 4.11038 12.2346L8.0733 5.05916C8.16726 4.88914 8.30234 4.74797 8.465 4.64982C8.62769 4.55167 8.81217 4.5 9 4.5C9.18782 4.5 9.37234 4.55167 9.535 4.64982C9.69765 4.74797 9.83277 4.88914 9.9267 5.05916L13.8896 12.2346C13.9615 12.3627 13.9996 12.5085 14 12.657C14.0005 12.8055 13.9632 12.9515 13.8922 13.0801C13.8211 13.2086 13.7187 13.3153 13.5954 13.389C13.4721 13.4628 13.3323 13.5011 13.1903 13.5H13.1926ZM6.20956 11.8133H11.7951L9.0023 6.75548L6.20956 11.8133Z" fill="white"/>
</svg>
