<svg width="20" height="20" viewBox="0 0 20 20" fill="none" xmlns="http://www.w3.org/2000/svg">
<path d="M20 10C20 15.5228 15.5228 20 10 20C4.47715 20 0 15.5228 0 10C0 4.47715 4.47715 0 10 0C15.5228 0 20 4.47715 20 10Z" fill="#0F141F"/>
<path fill-rule="evenodd" clip-rule="evenodd" d="M15.0085 10.2461C15.5173 11.1274 15.2153 12.2542 14.3341 12.763L12.1247 14.0386C11.2435 14.5473 10.1166 14.2454 9.60786 13.3642C9.09907 12.4829 9.40101 11.3561 10.2822 10.8473L12.4916 9.57175C13.3729 9.06297 14.4997 9.36491 15.0085 10.2461ZM12.5943 6.06438C13.1031 6.94561 12.8012 8.07245 11.9199 8.58123L6.764 11.558C5.88276 12.0668 4.75593 11.7649 4.24715 10.8836C3.73837 10.0024 4.0403 8.87558 4.92154 8.36679L10.0775 5.39001C10.9587 4.88123 12.0855 5.18316 12.5943 6.06438Z" fill="#84FB7F"/>
</svg>
