<svg width="18" height="19" viewBox="0 0 18 19" fill="none" xmlns="http://www.w3.org/2000/svg">
<rect y="0.5" width="18" height="18" rx="9" fill="#3193FF"/>
<path d="M14.7972 9L12.2031 6.68979L12.1984 6.6856L12.1882 6.67759C12.1714 6.66408 12.1538 6.65136 12.1355 6.63948C12.1227 6.63034 12.1099 6.62157 12.0962 6.61357C12.0902 6.60976 12.0842 6.60671 12.0778 6.60328C11.9299 6.51702 11.751 6.48344 11.5766 6.50921C11.4022 6.53498 11.245 6.61821 11.1364 6.74238L7.10198 10.3357V7.13453C7.10198 6.96624 7.02692 6.80485 6.8933 6.68585C6.75969 6.56685 6.57847 6.5 6.38951 6.5C6.20055 6.5 6.01932 6.56685 5.88571 6.68585C5.75209 6.80485 5.67703 6.96624 5.67703 7.13453V10.3357L4.20415 9.02401C4.06952 8.90968 3.89002 8.84678 3.70401 8.84875C3.51799 8.85072 3.34022 8.9174 3.20868 9.03455C3.07714 9.1517 3.00226 9.31002 3.00005 9.47568C2.99784 9.64135 3.06847 9.80121 3.19684 9.92111L5.88585 12.3159C5.90275 12.3312 5.92061 12.3456 5.93934 12.359C5.95731 12.372 5.97614 12.3845 5.99497 12.3971C6.09213 12.4532 6.20317 12.4873 6.31847 12.4966H6.32147C6.34458 12.4985 6.36768 12.4996 6.39079 12.4996H6.40149C6.42089 12.4996 6.44014 12.4989 6.45926 12.4973H6.47338C6.49178 12.4954 6.51018 12.4935 6.52815 12.4901H6.53628C6.55639 12.4863 6.5765 12.4821 6.59619 12.4768H6.59961C6.6211 12.471 6.64223 12.4642 6.66294 12.4566C6.69246 12.4457 6.72106 12.433 6.74853 12.4184L6.76479 12.4101C6.7917 12.3954 6.81744 12.3791 6.84181 12.3613L6.84909 12.3556C6.86406 12.3441 6.87904 12.3327 6.89188 12.3197L10.9827 8.67416V11.8655C10.9827 12.0338 11.0578 12.1952 11.1914 12.3142C11.325 12.4331 11.5062 12.5 11.6952 12.5C11.8842 12.5 12.0654 12.4331 12.199 12.3142C12.3326 12.1952 12.4077 12.0338 12.4077 11.8655V8.66425L13.7898 9.89749C13.924 10.0141 14.1044 10.079 14.2919 10.0779C14.4794 10.0769 14.6589 10.0101 14.7914 9.89201C14.924 9.77391 14.9989 9.61403 15 9.44705C15.0011 9.28007 14.9282 9.11944 14.7972 9Z" fill="white"/>
</svg>
