<svg width="66" height="66" viewBox="0 0 66 66" fill="none" xmlns="http://www.w3.org/2000/svg">
<path d="M2.06738 24.719L11.0805 11.0498L18.0621 19.0265L2.06738 24.719Z" fill="#02AB07"/>
<path d="M22.7439 35.1964L2.06738 24.7189L18.0621 19.0264L22.7439 35.1964Z" fill="#07BC05"/>
<path d="M32.9692 22.2026L18.0625 19.0264L22.7444 35.1964L32.9692 22.2026Z" fill="#00E404"/>
<path d="M63.8707 24.719L54.8575 11.0498L47.876 19.0265L63.8707 24.719Z" fill="#02AB07"/>
<path d="M43.1943 35.1964L63.8709 24.7189L47.8762 19.0264L43.1943 35.1964Z" fill="#07BC05"/>
<path d="M32.9688 22.2026L47.8755 19.0264L43.1936 35.1964L32.9688 22.2026Z" fill="#00E404"/>
<path d="M43.1938 35.1969L32.969 22.2031L22.7441 35.1969H43.1938Z" fill="#02D404"/>
<path d="M22.1721 5.1875H43.7665L54.8576 11.0502L47.8761 19.0269L32.9693 22.2031L18.0626 19.0269L11.0811 11.0502L22.1721 5.1875Z" fill="#08FB04"/>
<path d="M32.9688 60.467L2.06738 24.7188L22.7439 35.1963L32.9688 60.467Z" fill="#01E102"/>
<path d="M32.9688 60.467L63.8702 24.7188L43.1936 35.1963L32.9688 60.467Z" fill="#01E102"/>
<path d="M43.1938 35.1963L32.969 60.4671L22.7441 35.1963H43.1938Z" fill="#07FC02"/>
<g style="mix-blend-mode:color">
<mask id="mask0_102_4700" style="mask-type:alpha" maskUnits="userSpaceOnUse" x="0" y="0" width="66" height="66">
<path d="M2.06738 24.719L11.0805 11.0498L18.0621 19.0265L2.06738 24.719Z" fill="#02AB07"/>
<path d="M22.7439 35.1964L2.06738 24.7189L18.0621 19.0264L22.7439 35.1964Z" fill="#07BC05"/>
<path d="M32.9692 22.2026L18.0625 19.0264L22.7444 35.1964L32.9692 22.2026Z" fill="#00E404"/>
<path d="M63.8707 24.719L54.8575 11.0498L47.876 19.0265L63.8707 24.719Z" fill="#02AB07"/>
<path d="M43.1943 35.1964L63.8709 24.7189L47.8762 19.0264L43.1943 35.1964Z" fill="#07BC05"/>
<path d="M32.9688 22.2026L47.8755 19.0264L43.1936 35.1964L32.9688 22.2026Z" fill="#00E404"/>
<path d="M43.1938 35.1969L32.969 22.2031L22.7441 35.1969H43.1938Z" fill="#02D404"/>
<path d="M22.1721 5.1875H43.7665L54.8576 11.0502L47.8761 19.0269L32.9693 22.2031L18.0626 19.0269L11.0811 11.0502L22.1721 5.1875Z" fill="#08FB04"/>
<path d="M32.9688 60.467L2.06738 24.7188L22.7439 35.1963L32.9688 60.467Z" fill="#01E102"/>
<path d="M32.9688 60.467L63.8702 24.7188L43.1936 35.1963L32.9688 60.467Z" fill="#01E102"/>
<path d="M43.1938 35.1963L32.969 60.4671L22.7441 35.1963H43.1938Z" fill="#07FC02"/>
</mask>
<g mask="url(#mask0_102_4700)">
<rect width="66" height="66" fill="#0074FF"/>
</g>
</g>
</svg>
