<svg width="66" height="66" viewBox="0 0 66 66" fill="none" xmlns="http://www.w3.org/2000/svg">
<g id="bomb-svgrepo-com 1">
<path id="Vector" d="M26.125 60.5C37.5158 60.5 46.75 51.2658 46.75 39.875C46.75 28.4842 37.5158 19.25 26.125 19.25C14.7341 19.25 5.5 28.4842 5.5 39.875C5.5 51.2658 14.7341 60.5 26.125 60.5Z" fill="url(#paint0_linear_102_4739)"/>
<path id="Vector_2" d="M49.448 6.47119C49.9586 5.17627 51.7912 5.17627 52.3019 6.47119L54.1015 11.0342C54.2574 11.4295 54.5704 11.7424 54.9658 11.8984L59.5286 13.698C60.8236 14.2087 60.8236 16.0413 59.5286 16.552L54.9658 18.3516C54.5704 18.5076 54.2574 18.8205 54.1015 19.2158L52.3019 23.7788C51.7912 25.0737 49.9586 25.0737 49.448 23.7788L47.6484 19.2158C47.4924 18.8205 47.1795 18.5076 46.784 18.3516L42.2212 16.552C40.9263 16.0413 40.9263 14.2087 42.2212 13.698L46.784 11.8984C47.1795 11.7424 47.4924 11.4295 47.6484 11.0342L49.448 6.47119Z" fill="#FB5D5D"/>
<path id="Vector_3" d="M45.3119 17.7705L39.1777 23.9048C40.2442 24.7776 41.2218 25.7551 42.0944 26.8217L48.2285 20.6874L47.648 19.2152C47.4921 18.8199 47.1791 18.507 46.7837 18.351L45.3119 17.7705Z" fill="#FB5D5D" fill-opacity="0.5"/>
</g>
<defs>
<linearGradient id="paint0_linear_102_4739" x1="26.125" y1="19.25" x2="26.125" y2="60.5" gradientUnits="userSpaceOnUse">
<stop stop-color="#FB7676"/>
<stop offset="1" stop-color="#FB5D5D"/>
</linearGradient>
</defs>
</svg>
